<!-- Created with Inkscape (http://www.inkscape.org/) --><svg xmlns:dc="http://purl.org/dc/elements/1.1/" xmlns:cc="http://creativecommons.org/ns#" xmlns:rdf="http://www.w3.org/1999/02/22-rdf-syntax-ns#" xmlns:svg="http://www.w3.org/2000/svg" xmlns="http://www.w3.org/2000/svg" xmlns:sodipodi="http://sodipodi.sourceforge.net/DTD/sodipodi-0.dtd" xmlns:inkscape="http://www.inkscape.org/namespaces/inkscape" width="210.13225mm" height="152.82982mm" viewBox="0 0 210.13225 152.82982" version="1.1" id="svg8" inkscape:version="0.92.2 2405546, 2018-03-11" sodipodi:docname="sleep-r-1.svg">
  <defs id="defs2">
    <marker inkscape:stockid="Arrow1Send" orient="auto" refY="0" refX="0" id="marker5282" style="overflow:visible" inkscape:isstock="true">
      <path id="path5280" d="M 0,0 5,-5 -12.5,0 5,5 Z" style="fill:#000000;fill-opacity:1;fill-rule:evenodd;stroke:#000000;stroke-width:1.00000003pt;stroke-opacity:1" transform="matrix(-0.2,0,0,-0.2,-1.2,0)" inkscape:connector-curvature="0"/>
    </marker>
    <marker inkscape:isstock="true" style="overflow:visible" id="marker4077" refX="0" refY="0" orient="auto" inkscape:stockid="Arrow1Send">
      <path transform="matrix(-0.2,0,0,-0.2,-1.2,0)" style="fill:#000000;fill-opacity:1;fill-rule:evenodd;stroke:#000000;stroke-width:1.00000003pt;stroke-opacity:1" d="M 0,0 5,-5 -12.5,0 5,5 Z" id="path4075" inkscape:connector-curvature="0"/>
    </marker>
    <marker inkscape:stockid="Arrow1Send" orient="auto" refY="0" refX="0" id="Arrow1Send" style="overflow:visible" inkscape:isstock="true" inkscape:collect="always">
      <path id="path3466" d="M 0,0 5,-5 -12.5,0 5,5 Z" style="fill:#000000;fill-opacity:1;fill-rule:evenodd;stroke:#000000;stroke-width:1.00000003pt;stroke-opacity:1" transform="matrix(-0.2,0,0,-0.2,-1.2,0)" inkscape:connector-curvature="0"/>
    </marker>
    <marker inkscape:stockid="Arrow2Sstart" orient="auto" refY="0" refX="0" id="Arrow2Sstart" style="overflow:visible" inkscape:isstock="true">
      <path id="path3481" style="fill:#000000;fill-opacity:1;fill-rule:evenodd;stroke:#000000;stroke-width:0.625;stroke-linejoin:round;stroke-opacity:1" d="M 8.7185878,4.0337352 -2.2072895,0.01601326 8.7185884,-4.0017078 c -1.7454984,2.3720609 -1.7354408,5.6174519 -6e-7,8.035443 z" transform="matrix(0.3,0,0,0.3,-0.69,0)" inkscape:connector-curvature="0"/>
    </marker>
    <marker inkscape:stockid="Arrow1Mend" orient="auto" refY="0" refX="0" id="Arrow1Mend" style="overflow:visible" inkscape:isstock="true">
      <path id="path3460" d="M 0,0 5,-5 -12.5,0 5,5 Z" style="fill:#000000;fill-opacity:1;fill-rule:evenodd;stroke:#000000;stroke-width:1.00000003pt;stroke-opacity:1" transform="matrix(-0.4,0,0,-0.4,-4,0)" inkscape:connector-curvature="0"/>
    </marker>
    <marker inkscape:isstock="true" style="overflow:visible" id="marker7362" refX="0" refY="0" orient="auto" inkscape:stockid="Arrow1Mend">
      <path inkscape:connector-curvature="0" transform="matrix(-0.4,0,0,-0.4,-4,0)" style="fill:#000000;fill-opacity:1;fill-rule:evenodd;stroke:#000000;stroke-width:1.00000003pt;stroke-opacity:1" d="M 0,0 5,-5 -12.5,0 5,5 Z" id="path7360"/>
    </marker>
    <inkscape:path-effect is_visible="true" id="path-effect4900" effect="spiro"/>
    <inkscape:path-effect effect="spiro" id="path-effect4896" is_visible="true"/>
    <inkscape:path-effect effect="spiro" id="path-effect4892" is_visible="true"/>
    <marker inkscape:stockid="Arrow1Mstart" orient="auto" refY="0" refX="0" id="Arrow1Mstart" style="overflow:visible" inkscape:isstock="true">
      <path id="path981" d="M 0,0 5,-5 -12.5,0 5,5 Z" style="fill:#eb801a;fill-opacity:1;fill-rule:evenodd;stroke:#eb801a;stroke-width:1.00000003pt;stroke-opacity:1" transform="matrix(0.4,0,0,0.4,4,0)" inkscape:connector-curvature="0"/>
    </marker>
    <marker inkscape:stockid="Arrow2Lstart" orient="auto" refY="0" refX="0" id="Arrow2Lstart" style="overflow:visible" inkscape:isstock="true">
      <path id="path993" style="fill:#000000;fill-opacity:1;fill-rule:evenodd;stroke:#000000;stroke-width:0.625;stroke-linejoin:round;stroke-opacity:1" d="M 8.7185878,4.0337352 -2.2072895,0.01601326 8.7185884,-4.0017078 c -1.7454984,2.3720609 -1.7354408,5.6174519 -6e-7,8.035443 z" transform="matrix(1.1,0,0,1.1,1.1,0)" inkscape:connector-curvature="0"/>
    </marker>
    <marker inkscape:stockid="Arrow1Sstart" orient="auto" refY="0" refX="0" id="Arrow1Sstart" style="overflow:visible" inkscape:isstock="true">
      <path id="path987" d="M 0,0 5,-5 -12.5,0 5,5 Z" style="fill:#eb801a;fill-opacity:1;fill-rule:evenodd;stroke:#eb801a;stroke-width:1.00000003pt;stroke-opacity:1" transform="matrix(0.2,0,0,0.2,1.2,0)" inkscape:connector-curvature="0"/>
    </marker>
    <marker inkscape:stockid="Arrow2Lend" orient="auto" refY="0" refX="0" id="Arrow2Lend" style="overflow:visible" inkscape:isstock="true">
      <path id="path996" style="fill:#000000;fill-opacity:1;fill-rule:evenodd;stroke:#000000;stroke-width:0.625;stroke-linejoin:round;stroke-opacity:1" d="M 8.7185878,4.0337352 -2.2072895,0.01601326 8.7185884,-4.0017078 c -1.7454984,2.3720609 -1.7354408,5.6174519 -6e-7,8.035443 z" transform="matrix(-1.1,0,0,-1.1,-1.1,0)" inkscape:connector-curvature="0"/>
    </marker>
    <marker inkscape:stockid="Arrow1Lend" orient="auto" refY="0" refX="0" id="Arrow1Lend" style="overflow:visible" inkscape:isstock="true">
      <path id="path978" d="M 0,0 5,-5 -12.5,0 5,5 Z" style="fill:#eb801a;fill-opacity:1;fill-rule:evenodd;stroke:#eb801a;stroke-width:1.00000003pt;stroke-opacity:1" transform="matrix(-0.8,0,0,-0.8,-10,0)" inkscape:connector-curvature="0"/>
    </marker>
    <marker inkscape:isstock="true" style="overflow:visible" id="marker7362-7" refX="0" refY="0" orient="auto" inkscape:stockid="Arrow1Mend">
      <path inkscape:connector-curvature="0" transform="matrix(-0.4,0,0,-0.4,-4,0)" style="fill:#000000;fill-opacity:1;fill-rule:evenodd;stroke:#000000;stroke-width:1.00000003pt;stroke-opacity:1" d="M 0,0 5,-5 -12.5,0 5,5 Z" id="path7360-6"/>
    </marker>
  </defs>
  <metadata id="metadata5">
    <rdf:RDF>
      <cc:Work rdf:about="">
        <dc:format>image/svg+xml</dc:format>
        <dc:type rdf:resource="http://purl.org/dc/dcmitype/StillImage"/>
        <dc:title/>
      </cc:Work>
    </rdf:RDF>
  </metadata>
  <g inkscape:label="Base" inkscape:groupmode="layer" id="layer1" transform="translate(0.31803584,-5.5252997)" style="display:inline">
    <rect style="opacity:1;fill:#eb801a;fill-opacity:0.50196078;stroke:#22373a;stroke-width:1;stroke-linecap:square;stroke-linejoin:round;stroke-miterlimit:4;stroke-dasharray:none;stroke-dashoffset:0;stroke-opacity:1" id="rect2284" width="208.74036" height="46.771378" x="0.21484511" y="111.08374"/>
    <path sodipodi:nodetypes="cc" inkscape:connector-curvature="0" id="path4073" d="m 183.17815,97.16049 v 10.5935" style="fill:none;fill-rule:evenodd;stroke:#000000;stroke-width:2;stroke-linecap:butt;stroke-linejoin:miter;stroke-miterlimit:4;stroke-dasharray:none;stroke-opacity:1;marker-end:url(#marker4077)"/>
    <path style="fill:none;fill-rule:evenodd;stroke:#000000;stroke-width:2;stroke-linecap:butt;stroke-linejoin:miter;stroke-miterlimit:4;stroke-dasharray:none;stroke-opacity:1;marker-end:url(#Arrow1Send)" d="m 111.3379,97.16049 v 10.5935" id="path3425" inkscape:connector-curvature="0" sodipodi:nodetypes="cc"/>
    <rect y="6.025301" x="157.04208" height="91.372581" width="52.272125" id="rect936" style="opacity:1;fill:#eb801a;fill-opacity:0.50196078;stroke:#22373a;stroke-width:1;stroke-linecap:square;stroke-linejoin:round;stroke-miterlimit:4;stroke-dasharray:none;stroke-dashoffset:0;stroke-opacity:1"/>
    <rect style="opacity:1;fill:#eb801a;fill-opacity:0.50196078;stroke:#22373a;stroke-width:1;stroke-linecap:square;stroke-linejoin:round;stroke-miterlimit:4;stroke-dasharray:none;stroke-dashoffset:0;stroke-opacity:1" id="rect916" width="50.088757" height="30.925941" x="86.293518" y="66.471939"/>
    <rect y="6.0253015" x="57.350552" height="18.898809" width="26.836309" id="rect4582" style="opacity:1;fill:none;fill-opacity:0.50196078;stroke:#22373a;stroke-width:1;stroke-linecap:square;stroke-linejoin:round;stroke-miterlimit:4;stroke-dasharray:none;stroke-dashoffset:0;stroke-opacity:1"/>
    <text xml:space="preserve" style="font-style:normal;font-variant:normal;font-weight:normal;font-stretch:normal;font-size:4.23333311px;line-height:75%;font-family:serif;-inkscape-font-specification:serif;text-align:center;letter-spacing:0px;word-spacing:0px;text-anchor:middle;fill:#000000;fill-opacity:1;stroke:none;stroke-width:0.26458332px;stroke-linecap:butt;stroke-linejoin:miter;stroke-opacity:1" x="70.496162" y="18.099375" id="text888"><tspan sodipodi:role="line" id="tspan886" x="70.496162" y="18.099375" style="font-style:normal;font-variant:normal;font-weight:300;font-stretch:normal;font-size:10.58333302px;font-family:'Fira Sans';-inkscape-font-specification:'Fira Sans, Light';font-variant-ligatures:normal;font-variant-caps:normal;font-variant-numeric:normal;font-feature-settings:normal;text-align:center;writing-mode:lr-tb;text-anchor:middle;stroke-width:0.26458332px">DSL<tspan style="font-size:64.99999762%;baseline-shift:sub" id="tspan906">i+1</tspan></tspan></text>
    <text id="text892" y="78.220161" x="30.218168" style="font-style:normal;font-variant:normal;font-weight:normal;font-stretch:normal;font-size:4.23333311px;line-height:75%;font-family:serif;-inkscape-font-specification:serif;text-align:center;letter-spacing:0px;word-spacing:0px;text-anchor:middle;fill:#000000;fill-opacity:1;stroke:none;stroke-width:0.26458332px;stroke-linecap:butt;stroke-linejoin:miter;stroke-opacity:1" xml:space="preserve"><tspan style="font-style:normal;font-variant:normal;font-weight:300;font-stretch:normal;font-size:10.58333302px;line-height:125%;font-family:'Fira Sans';-inkscape-font-specification:'Fira Sans, Light';font-variant-ligatures:normal;font-variant-caps:normal;font-variant-numeric:normal;font-feature-settings:normal;text-align:center;writing-mode:lr-tb;text-anchor:middle;stroke-width:0.26458332px" y="78.220161" x="30.218168" id="tspan890" sodipodi:role="line">Programs</tspan><tspan style="font-style:normal;font-variant:normal;font-weight:300;font-stretch:normal;font-size:10.58333302px;line-height:125%;font-family:'Fira Sans';-inkscape-font-specification:'Fira Sans, Light';font-variant-ligatures:normal;font-variant-caps:normal;font-variant-numeric:normal;font-feature-settings:normal;text-align:center;writing-mode:lr-tb;text-anchor:middle;stroke-width:0.26458332px" y="91.449326" x="30.218168" sodipodi:role="line" id="tspan898">(functions)</tspan></text>
    <rect y="66.471939" x="0.36178109" height="30.925945" width="59.710461" id="rect914" style="opacity:1;fill:none;fill-opacity:1;stroke:#22373a;stroke-width:1;stroke-linecap:square;stroke-linejoin:round;stroke-miterlimit:4;stroke-dasharray:none;stroke-dashoffset:0;stroke-opacity:1"/>
    <text xml:space="preserve" style="font-style:normal;font-variant:normal;font-weight:normal;font-stretch:normal;font-size:4.23333311px;line-height:75%;font-family:serif;-inkscape-font-specification:serif;text-align:center;letter-spacing:0px;word-spacing:0px;text-anchor:middle;fill:#000000;fill-opacity:1;stroke:none;stroke-width:0.26458332px;stroke-linecap:butt;stroke-linejoin:miter;stroke-opacity:1" x="111.32155" y="77.860329" id="text896"><tspan sodipodi:role="line" id="tspan894" x="111.32155" y="77.860329" style="font-style:normal;font-variant:normal;font-weight:300;font-stretch:normal;font-size:10.58333302px;line-height:125%;font-family:'Fira Sans';-inkscape-font-specification:'Fira Sans, Light';font-variant-ligatures:normal;font-variant-caps:normal;font-variant-numeric:normal;font-feature-settings:normal;text-align:center;writing-mode:lr-tb;text-anchor:middle;stroke-width:0.26458332px">Data</tspan><tspan sodipodi:role="line" x="111.32155" y="91.089493" style="font-style:normal;font-variant:normal;font-weight:300;font-stretch:normal;font-size:10.58333302px;line-height:125%;font-family:'Fira Sans';-inkscape-font-specification:'Fira Sans, Light';font-variant-ligatures:normal;font-variant-caps:normal;font-variant-numeric:normal;font-feature-settings:normal;text-align:center;writing-mode:lr-tb;text-anchor:middle;stroke-width:0.26458332px" id="tspan900">(io pairs)</tspan></text>
    <text xml:space="preserve" style="font-style:normal;font-variant:normal;font-weight:normal;font-stretch:normal;font-size:4.23333311px;line-height:75%;font-family:serif;-inkscape-font-specification:serif;text-align:center;letter-spacing:0px;word-spacing:0px;text-anchor:middle;fill:#000000;fill-opacity:1;stroke:none;stroke-width:0.26458332px;stroke-linecap:butt;stroke-linejoin:miter;stroke-opacity:1" x="183.23553" y="18.099375" id="text965"><tspan sodipodi:role="line" id="tspan963" x="183.23553" y="18.099375" style="font-style:normal;font-variant:normal;font-weight:300;font-stretch:normal;font-size:10.58333302px;font-family:'Fira Sans';-inkscape-font-specification:'Fira Sans, Light';font-variant-ligatures:normal;font-variant-caps:normal;font-variant-numeric:normal;font-feature-settings:normal;text-align:center;writing-mode:lr-tb;text-anchor:middle;stroke-width:0.26458332px">Solutions</tspan></text>
    <g inkscape:label="DC" id="g8439" inkscape:groupmode="layer" style="display:inline">
      <g inkscape:label="Empty" id="g8381" inkscape:groupmode="layer" style="display:inline"/>
      <g inkscape:label="t1" id="g8395" inkscape:groupmode="layer" style="display:inline">
        <text id="text8393" y="30.820045" x="181.65163" style="font-style:normal;font-variant:normal;font-weight:normal;font-stretch:normal;font-size:4.23333311px;line-height:75%;font-family:serif;-inkscape-font-specification:serif;text-align:center;letter-spacing:0px;word-spacing:0px;text-anchor:middle;fill:#000000;fill-opacity:1;stroke:none;stroke-width:0.26458332px;stroke-linecap:butt;stroke-linejoin:miter;stroke-opacity:1" xml:space="preserve"><tspan style="font-style:normal;font-variant:normal;font-weight:300;font-stretch:normal;font-size:7.05555534px;font-family:'Fira Sans';-inkscape-font-specification:'Fira Sans, Light';font-variant-ligatures:normal;font-variant-caps:normal;font-variant-numeric:normal;font-feature-settings:normal;text-align:center;writing-mode:lr-tb;text-anchor:middle;stroke-width:0.26458332px" y="30.820045" x="181.65163" id="tspan8391" sodipodi:role="line">-P<tspan id="tspan8385" style="font-size:64.99999762%;baseline-shift:sub">i<tspan id="tspan8383">1</tspan></tspan> for data<tspan id="tspan8389" style="font-size:64.99999762%;baseline-shift:sub">n<tspan id="tspan8387">1</tspan></tspan></tspan></text>
      </g>
      <g inkscape:label="t2" id="g8409" inkscape:groupmode="layer" style="display:inline">
        <text id="text8407" y="41.075024" x="181.95618" style="font-style:normal;font-variant:normal;font-weight:normal;font-stretch:normal;font-size:4.23333311px;line-height:75%;font-family:serif;-inkscape-font-specification:serif;text-align:center;letter-spacing:0px;word-spacing:0px;text-anchor:middle;fill:#000000;fill-opacity:1;stroke:none;stroke-width:0.26458332px;stroke-linecap:butt;stroke-linejoin:miter;stroke-opacity:1" xml:space="preserve"><tspan style="font-style:normal;font-variant:normal;font-weight:300;font-stretch:normal;font-size:7.05555534px;font-family:'Fira Sans';-inkscape-font-specification:'Fira Sans, Light';font-variant-ligatures:normal;font-variant-caps:normal;font-variant-numeric:normal;font-feature-settings:normal;text-align:center;writing-mode:lr-tb;text-anchor:middle;stroke-width:0.26458332px" y="41.075024" x="181.95618" id="tspan8405" sodipodi:role="line">-P<tspan id="tspan8399" style="font-size:64.99999762%;baseline-shift:sub">i<tspan id="tspan8397">2</tspan></tspan> for data<tspan id="tspan8403" style="font-size:64.99999762%;baseline-shift:sub">n<tspan id="tspan8401">2</tspan></tspan></tspan></text>
      </g>
      <g inkscape:label="t3" id="g8423" inkscape:groupmode="layer" style="display:inline">
        <text id="text8421" y="51.304787" x="181.992" style="font-style:normal;font-variant:normal;font-weight:normal;font-stretch:normal;font-size:4.23333311px;line-height:75%;font-family:serif;-inkscape-font-specification:serif;text-align:center;letter-spacing:0px;word-spacing:0px;text-anchor:middle;fill:#000000;fill-opacity:1;stroke:none;stroke-width:0.26458332px;stroke-linecap:butt;stroke-linejoin:miter;stroke-opacity:1" xml:space="preserve"><tspan style="font-style:normal;font-variant:normal;font-weight:300;font-stretch:normal;font-size:7.05555534px;font-family:'Fira Sans';-inkscape-font-specification:'Fira Sans, Light';font-variant-ligatures:normal;font-variant-caps:normal;font-variant-numeric:normal;font-feature-settings:normal;text-align:center;writing-mode:lr-tb;text-anchor:middle;stroke-width:0.26458332px" y="51.304787" x="181.992" id="tspan8419" sodipodi:role="line">-P<tspan id="tspan8413" style="font-size:4.58611059px;baseline-shift:sub;stroke-width:0.26458332px">i<tspan id="tspan8411" style="stroke-width:0.26458332px">3</tspan></tspan> for data<tspan id="tspan8417" style="font-size:4.58611059px;baseline-shift:sub;stroke-width:0.26458332px">n<tspan id="tspan8415" style="stroke-width:0.26458332px">3</tspan></tspan></tspan></text>
      </g>
      <g inkscape:label="t4" id="g8437" inkscape:groupmode="layer" style="display:inline">
        <text id="text8435" y="61.584991" x="182.13531" style="font-style:normal;font-variant:normal;font-weight:normal;font-stretch:normal;font-size:4.23333311px;line-height:75%;font-family:serif;-inkscape-font-specification:serif;text-align:center;letter-spacing:0px;word-spacing:0px;text-anchor:middle;fill:#000000;fill-opacity:1;stroke:none;stroke-width:0.26458332px;stroke-linecap:butt;stroke-linejoin:miter;stroke-opacity:1" xml:space="preserve"><tspan style="font-style:normal;font-variant:normal;font-weight:300;font-stretch:normal;font-size:7.05555534px;font-family:'Fira Sans';-inkscape-font-specification:'Fira Sans, Light';font-variant-ligatures:normal;font-variant-caps:normal;font-variant-numeric:normal;font-feature-settings:normal;text-align:center;writing-mode:lr-tb;text-anchor:middle;stroke-width:0.26458332px" y="61.584991" x="182.13531" id="tspan8433" sodipodi:role="line">-P<tspan id="tspan8427" style="font-size:4.58611059px;baseline-shift:sub;stroke-width:0.26458332px">i<tspan id="tspan8425" style="stroke-width:0.26458332px">4</tspan></tspan> for data<tspan id="tspan8431" style="font-size:4.58611059px;baseline-shift:sub;stroke-width:0.26458332px">n<tspan id="tspan8429" style="stroke-width:0.26458332px">4</tspan></tspan></tspan></text>
        <text xml:space="preserve" style="font-style:normal;font-variant:normal;font-weight:normal;font-stretch:normal;font-size:4.23333311px;line-height:75%;font-family:serif;-inkscape-font-specification:serif;text-align:center;letter-spacing:0px;word-spacing:0px;text-anchor:middle;fill:#000000;fill-opacity:1;stroke:none;stroke-width:0.26458332px;stroke-linecap:butt;stroke-linejoin:miter;stroke-opacity:1" x="182.13531" y="77.459984" id="text1706"><tspan sodipodi:role="line" id="tspan1704" x="182.13531" y="77.459984" style="font-style:normal;font-variant:normal;font-weight:300;font-stretch:normal;font-size:7.05555534px;font-family:'Fira Sans';-inkscape-font-specification:'Fira Sans, Light';font-variant-ligatures:normal;font-variant-caps:normal;font-variant-numeric:normal;font-feature-settings:normal;text-align:center;writing-mode:lr-tb;text-anchor:middle;stroke-width:0.26458332px">...</tspan></text>
      </g>
    </g>
    <text id="text7860" y="118.70016" x="104.63866" style="font-style:normal;font-variant:normal;font-weight:normal;font-stretch:normal;font-size:4.23333311px;line-height:75%;font-family:serif;-inkscape-font-specification:serif;text-align:center;letter-spacing:0px;word-spacing:0px;text-anchor:middle;fill:#000000;fill-opacity:1;stroke:none;stroke-width:0.26458332px;stroke-linecap:butt;stroke-linejoin:miter;stroke-opacity:1" xml:space="preserve"><tspan style="font-style:normal;font-variant:normal;font-weight:300;font-stretch:normal;font-size:7.05555534px;font-family:'Fira Sans';-inkscape-font-specification:'Fira Sans, Light';font-variant-ligatures:normal;font-variant-caps:normal;font-variant-numeric:normal;font-feature-settings:normal;text-align:center;writing-mode:lr-tb;text-anchor:middle;stroke-width:0.26458332px" y="118.70016" x="104.63866" id="tspan7858" sodipodi:role="line">Training Recognition Model</tspan></text>
    <g id="g8185" transform="matrix(1.1012424,0,0,1.1012424,40.00129,0.82759874)">
      <path style="fill:#7f7fff;fill-opacity:1;fill-rule:nonzero;stroke:none;stroke-width:0.35277775" d="m 68.333162,116.85234 c 0,-1.55441 1.25953,-2.81393 2.81258,-2.81393 1.55442,0 2.81395,1.25952 2.81395,2.81393 0,1.55444 -1.25953,2.81397 -2.81395,2.81397 -1.55305,0 -2.81258,-1.25953 -2.81258,-2.81397 z m 0,0" id="path6058" inkscape:connector-curvature="0"/>
      <path style="fill:#7f7fff;fill-opacity:1;fill-rule:nonzero;stroke:none;stroke-width:0.35277775" d="m 68.333162,123.10176 c 0,-1.55307 1.25953,-2.81259 2.81258,-2.81259 1.55442,0 2.81395,1.25952 2.81395,2.81259 0,1.55441 -1.25953,2.81393 -2.81395,2.81393 -1.55305,0 -2.81258,-1.25952 -2.81258,-2.81393 z m 0,0" id="path6060" inkscape:connector-curvature="0"/>
      <path style="fill:#7f7fff;fill-opacity:1;fill-rule:nonzero;stroke:none;stroke-width:0.35277775" d="m 68.333162,129.35253 c 0,-1.55441 1.25953,-2.81394 2.81258,-2.81394 1.55442,0 2.81395,1.25953 2.81395,2.81394 0,1.55444 -1.25953,2.81396 -2.81395,2.81396 -1.55305,0 -2.81258,-1.25952 -2.81258,-2.81396 z m 0,0" id="path6062" inkscape:connector-curvature="0"/>
      <path style="fill:#7f7fff;fill-opacity:1;fill-rule:nonzero;stroke:none;stroke-width:0.35277775" d="m 68.333162,135.60195 c 0,-1.55307 1.25953,-2.81259 2.81258,-2.81259 1.55442,0 2.81395,1.25952 2.81395,2.81259 0,1.55441 -1.25953,2.81393 -2.81395,2.81393 -1.55305,0 -2.81258,-1.25952 -2.81258,-2.81393 z m 0,0" id="path6064" inkscape:connector-curvature="0"/>
      <path style="fill:#7f7fff;fill-opacity:1;fill-rule:nonzero;stroke:none;stroke-width:0.35277775" d="m 55.832982,119.97774 c 0,-1.55441 1.25953,-2.81397 2.81258,-2.81397 1.55442,0 2.81395,1.25956 2.81395,2.81397 0,1.55303 -1.25953,2.81259 -2.81395,2.81259 -1.55305,0 -2.81258,-1.25956 -2.81258,-2.81259 z m 0,0" id="path6066" inkscape:connector-curvature="0"/>
      <path style="fill:#7f7fff;fill-opacity:1;fill-rule:nonzero;stroke:none;stroke-width:0.35277775" d="m 55.832982,126.22713 c 0,-1.55441 1.25953,-2.81394 2.81258,-2.81394 1.55442,0 2.81395,1.25953 2.81395,2.81394 0,1.55444 -1.25953,2.81396 -2.81395,2.81396 -1.55305,0 -2.81258,-1.25952 -2.81258,-2.81396 z m 0,0" id="path6068" inkscape:connector-curvature="0"/>
      <path style="fill:#7f7fff;fill-opacity:1;fill-rule:nonzero;stroke:none;stroke-width:0.35277775" d="m 55.832982,132.47792 c 0,-1.55444 1.25953,-2.81396 2.81258,-2.81396 1.55442,0 2.81395,1.25952 2.81395,2.81396 0,1.55304 -1.25953,2.8126 -2.81395,2.8126 -1.55305,0 -2.81258,-1.25956 -2.81258,-2.8126 z m 0,0" id="path6070" inkscape:connector-curvature="0"/>
      <path style="fill:#7f7fff;fill-opacity:1;fill-rule:nonzero;stroke:none;stroke-width:0.35277775" d="m 43.332802,116.85234 c 0,-1.55441 1.25952,-2.81393 2.81257,-2.81393 1.55443,0 2.81395,1.25952 2.81395,2.81393 0,1.55444 -1.25952,2.81397 -2.81395,2.81397 -1.55305,0 -2.81257,-1.25953 -2.81257,-2.81397 z m 0,0" id="path6072" inkscape:connector-curvature="0"/>
      <path style="fill:#7f7fff;fill-opacity:1;fill-rule:nonzero;stroke:none;stroke-width:0.35277775" d="m 43.332802,123.10176 c 0,-1.55307 1.25952,-2.81259 2.81257,-2.81259 1.55443,0 2.81395,1.25952 2.81395,2.81259 0,1.55441 -1.25952,2.81393 -2.81395,2.81393 -1.55305,0 -2.81257,-1.25952 -2.81257,-2.81393 z m 0,0" id="path6074" inkscape:connector-curvature="0"/>
      <path style="fill:#7f7fff;fill-opacity:1;fill-rule:nonzero;stroke:none;stroke-width:0.35277775" d="m 43.332802,129.35253 c 0,-1.55441 1.25952,-2.81394 2.81257,-2.81394 1.55443,0 2.81395,1.25953 2.81395,2.81394 0,1.55444 -1.25952,2.81396 -2.81395,2.81396 -1.55305,0 -2.81257,-1.25952 -2.81257,-2.81396 z m 0,0" id="path6076" inkscape:connector-curvature="0"/>
      <path style="fill:#7f7fff;fill-opacity:1;fill-rule:nonzero;stroke:none;stroke-width:0.35277775" d="m 43.332802,135.60195 c 0,-1.55307 1.25952,-2.81259 2.81257,-2.81259 1.55443,0 2.81395,1.25952 2.81395,2.81259 0,1.55441 -1.25952,2.81393 -2.81395,2.81393 -1.55305,0 -2.81257,-1.25952 -2.81257,-2.81393 z m 0,0" id="path6078" inkscape:connector-curvature="0"/>
      <path style="fill:none;stroke:#000000;stroke-width:0.07029097;stroke-linecap:butt;stroke-linejoin:miter;stroke-miterlimit:10;stroke-opacity:1" d="m 68.375882,117.54551 -6.34448,1.58613" id="path6080" inkscape:connector-curvature="0"/>
      <path style="fill:#000000;fill-opacity:1;fill-rule:nonzero;stroke:none;stroke-width:0.35277775" d="m 61.416792,119.2846 c 0.17363,-0.0799 0.44373,-0.25633 0.61874,-0.42721 l 0.12816,0.51262 c -0.23427,-0.0675 -0.55673,-0.0965 -0.7469,-0.0854" id="path6082" inkscape:connector-curvature="0"/>
      <path style="fill:none;stroke:#000000;stroke-width:0.07029097;stroke-linecap:butt;stroke-linejoin:miter;stroke-miterlimit:10;stroke-opacity:1" d="m 68.856812,118.56938 -7.41522,5.56038" id="path6084" inkscape:connector-curvature="0"/>
      <path style="fill:#000000;fill-opacity:1;fill-rule:nonzero;stroke:none;stroke-width:0.35277775" d="m 60.935852,124.51012 c 0.12954,-0.14058 0.31006,-0.40792 0.40515,-0.63253 l 0.31557,0.42168 c -0.24254,0.0275 -0.54984,0.12678 -0.72072,0.21085" id="path6086" inkscape:connector-curvature="0"/>
      <path style="fill:none;stroke:#000000;stroke-width:0.07029097;stroke-linecap:butt;stroke-linejoin:miter;stroke-miterlimit:10;stroke-opacity:1" d="m 69.366692,119.0765 -8.53694,10.67152" id="path6088" inkscape:connector-curvature="0"/>
      <path style="fill:#000000;fill-opacity:1;fill-rule:nonzero;stroke:none;stroke-width:0.35277775" d="m 60.434252,130.24138 c 0.0896,-0.16813 0.19843,-0.47131 0.23289,-0.71247 l 0.41203,0.32936 c -0.22738,0.0868 -0.50023,0.25908 -0.64492,0.38311" id="path6090" inkscape:connector-curvature="0"/>
      <path style="fill:none;stroke:#000000;stroke-width:0.07029097;stroke-linecap:butt;stroke-linejoin:miter;stroke-miterlimit:10;stroke-opacity:1" d="m 68.375882,122.40996 -6.34448,-1.58612" id="path6092" inkscape:connector-curvature="0"/>
      <path style="fill:#000000;fill-opacity:1;fill-rule:nonzero;stroke:none;stroke-width:0.35277775" d="m 61.416792,120.6695 c 0.19017,0.0109 0.51263,-0.0166 0.7469,-0.0854 l -0.12816,0.51262 c -0.17501,-0.17088 -0.44511,-0.34727 -0.61874,-0.42721" id="path6094" inkscape:connector-curvature="0"/>
      <path style="fill:none;stroke:#000000;stroke-width:0.07029097;stroke-linecap:butt;stroke-linejoin:miter;stroke-miterlimit:10;stroke-opacity:1" d="m 68.375882,123.7949 -6.34448,1.58612" id="path6096" inkscape:connector-curvature="0"/>
      <path style="fill:#000000;fill-opacity:1;fill-rule:nonzero;stroke:none;stroke-width:0.35277775" d="m 61.416792,125.53536 c 0.17363,-0.0799 0.44373,-0.25632 0.61874,-0.42717 l 0.12816,0.51262 c -0.23427,-0.0689 -0.55673,-0.0978 -0.7469,-0.0854" id="path6098" inkscape:connector-curvature="0"/>
      <path style="fill:none;stroke:#000000;stroke-width:0.07029097;stroke-linecap:butt;stroke-linejoin:miter;stroke-miterlimit:10;stroke-opacity:1" d="m 68.856812,124.82018 -7.41522,5.56037" id="path6100" inkscape:connector-curvature="0"/>
      <path style="fill:#000000;fill-opacity:1;fill-rule:nonzero;stroke:none;stroke-width:0.35277775" d="m 60.935852,130.75951 c 0.12954,-0.14055 0.31006,-0.40788 0.40515,-0.63253 l 0.31557,0.42167 c -0.24254,0.0289 -0.54984,0.12679 -0.72072,0.21086" id="path6102" inkscape:connector-curvature="0"/>
      <path style="fill:none;stroke:#000000;stroke-width:0.07029097;stroke-linecap:butt;stroke-linejoin:miter;stroke-miterlimit:10;stroke-opacity:1" d="m 68.856812,127.63548 -7.41522,-5.56175" id="path6104" inkscape:connector-curvature="0"/>
      <path style="fill:#000000;fill-opacity:1;fill-rule:nonzero;stroke:none;stroke-width:0.35277775" d="m 60.935852,121.69478 c 0.17088,0.0841 0.47818,0.18327 0.72072,0.21082 l -0.31557,0.42171 c -0.0951,-0.22465 -0.27561,-0.49199 -0.40515,-0.63253" id="path6106" inkscape:connector-curvature="0"/>
      <path style="fill:none;stroke:#000000;stroke-width:0.07029097;stroke-linecap:butt;stroke-linejoin:miter;stroke-miterlimit:10;stroke-opacity:1" d="m 68.375882,128.65939 -6.34448,-1.58613" id="path6108" inkscape:connector-curvature="0"/>
      <path style="fill:#000000;fill-opacity:1;fill-rule:nonzero;stroke:none;stroke-width:0.35277775" d="m 61.416792,126.9203 c 0.19017,0.0109 0.51263,-0.018 0.7469,-0.0854 l -0.12816,0.51262 c -0.17501,-0.17085 -0.44511,-0.34724 -0.61874,-0.42718" id="path6110" inkscape:connector-curvature="0"/>
      <path style="fill:none;stroke:#000000;stroke-width:0.07029097;stroke-linecap:butt;stroke-linejoin:miter;stroke-miterlimit:10;stroke-opacity:1" d="m 68.375882,130.04429 -6.34448,1.5875" id="path6112" inkscape:connector-curvature="0"/>
      <path style="fill:#000000;fill-opacity:1;fill-rule:nonzero;stroke:none;stroke-width:0.35277775" d="m 61.416792,131.78479 c 0.17363,-0.0799 0.44373,-0.25633 0.61874,-0.42722 l 0.12816,0.51262 c -0.23427,-0.0675 -0.55673,-0.0965 -0.7469,-0.0854" id="path6114" inkscape:connector-curvature="0"/>
      <path style="fill:none;stroke:#000000;stroke-width:0.07029097;stroke-linecap:butt;stroke-linejoin:miter;stroke-miterlimit:10;stroke-opacity:1" d="m 69.366692,133.37779 -8.53694,-10.67153" id="path6116" inkscape:connector-curvature="0"/>
      <path style="fill:#000000;fill-opacity:1;fill-rule:nonzero;stroke:none;stroke-width:0.35277775" d="m 60.434252,122.2129 c 0.14469,0.12404 0.41754,0.2963 0.64492,0.3845 l -0.41203,0.32935 c -0.0345,-0.24254 -0.14332,-0.54571 -0.23289,-0.71385" id="path6118" inkscape:connector-curvature="0"/>
      <path style="fill:none;stroke:#000000;stroke-width:0.07029097;stroke-linecap:butt;stroke-linejoin:miter;stroke-miterlimit:10;stroke-opacity:1" d="m 68.856812,133.88491 -7.41522,-5.56041" id="path6120" inkscape:connector-curvature="0"/>
      <path style="fill:#000000;fill-opacity:1;fill-rule:nonzero;stroke:none;stroke-width:0.35277775" d="m 60.935852,127.94417 c 0.17088,0.0854 0.47818,0.1833 0.72072,0.21223 l -0.31557,0.42167 c -0.0951,-0.22599 -0.27561,-0.49195 -0.40515,-0.6339" id="path6122" inkscape:connector-curvature="0"/>
      <path style="fill:none;stroke:#000000;stroke-width:0.07029097;stroke-linecap:butt;stroke-linejoin:miter;stroke-miterlimit:10;stroke-opacity:1" d="m 68.375882,134.91015 -6.34448,-1.58612" id="path6124" inkscape:connector-curvature="0"/>
      <path style="fill:#000000;fill-opacity:1;fill-rule:nonzero;stroke:none;stroke-width:0.35277775" d="m 61.416792,133.16968 c 0.19017,0.0109 0.51263,-0.0166 0.7469,-0.0854 l -0.12816,0.51266 c -0.17501,-0.17089 -0.44511,-0.34727 -0.61874,-0.42721" id="path6126" inkscape:connector-curvature="0"/>
      <path style="fill:none;stroke:#000000;stroke-width:0.07029097;stroke-linecap:butt;stroke-linejoin:miter;stroke-miterlimit:10;stroke-opacity:1" d="m 55.875702,119.28456 -6.34449,-1.58608" id="path6128" inkscape:connector-curvature="0"/>
      <path style="fill:#000000;fill-opacity:1;fill-rule:nonzero;stroke:none;stroke-width:0.35277775" d="m 48.916612,117.54414 c 0.19017,0.0123 0.51262,-0.0166 0.74689,-0.0854 l -0.12816,0.51262 c -0.17501,-0.17089 -0.4451,-0.34728 -0.61873,-0.42718" id="path6130" inkscape:connector-curvature="0"/>
      <path style="fill:none;stroke:#000000;stroke-width:0.07029097;stroke-linecap:butt;stroke-linejoin:miter;stroke-miterlimit:10;stroke-opacity:1" d="m 55.875702,120.6695 -6.34449,1.58612" id="path6132" inkscape:connector-curvature="0"/>
      <path style="fill:#000000;fill-opacity:1;fill-rule:nonzero;stroke:none;stroke-width:0.35277775" d="m 48.916612,122.40996 c 0.17363,-0.0799 0.44372,-0.25629 0.61873,-0.42717 l 0.12816,0.51262 c -0.23427,-0.0689 -0.55672,-0.0965 -0.74689,-0.0854" id="path6134" inkscape:connector-curvature="0"/>
      <path style="fill:none;stroke:#000000;stroke-width:0.07029097;stroke-linecap:butt;stroke-linejoin:miter;stroke-miterlimit:10;stroke-opacity:1" d="m 56.356632,121.69478 -7.41384,5.56038" id="path6136" inkscape:connector-curvature="0"/>
      <path style="fill:#000000;fill-opacity:1;fill-rule:nonzero;stroke:none;stroke-width:0.35277775" d="m 48.435672,127.63548 c 0.12954,-0.14054 0.31006,-0.40788 0.40514,-0.63387 l 0.31557,0.42306 c -0.24253,0.0275 -0.54983,0.12537 -0.72071,0.21081" id="path6138" inkscape:connector-curvature="0"/>
      <path style="fill:none;stroke:#000000;stroke-width:0.07029097;stroke-linecap:butt;stroke-linejoin:miter;stroke-miterlimit:10;stroke-opacity:1" d="m 56.866512,122.2019 -8.53695,10.67152" id="path6140" inkscape:connector-curvature="0"/>
      <path style="fill:#000000;fill-opacity:1;fill-rule:nonzero;stroke:none;stroke-width:0.35277775" d="m 47.934062,133.36675 c 0.0896,-0.1681 0.19844,-0.47128 0.23289,-0.71381 l 0.41204,0.32935 c -0.22738,0.0882 -0.50023,0.26046 -0.64493,0.38446" id="path6142" inkscape:connector-curvature="0"/>
      <path style="fill:none;stroke:#000000;stroke-width:0.07029097;stroke-linecap:butt;stroke-linejoin:miter;stroke-miterlimit:10;stroke-opacity:1" d="m 56.356632,124.51009 -7.41384,-5.56038" id="path6144" inkscape:connector-curvature="0"/>
      <path style="fill:#000000;fill-opacity:1;fill-rule:nonzero;stroke:none;stroke-width:0.35277775" d="m 48.435672,118.56938 c 0.17088,0.0841 0.47818,0.18327 0.72071,0.21085 l -0.31557,0.42168 c -0.0951,-0.22461 -0.2756,-0.49195 -0.40514,-0.63253" id="path6146" inkscape:connector-curvature="0"/>
      <path style="fill:none;stroke:#000000;stroke-width:0.07029097;stroke-linecap:butt;stroke-linejoin:miter;stroke-miterlimit:10;stroke-opacity:1" d="m 55.875702,125.53536 -6.34449,-1.58612" id="path6148" inkscape:connector-curvature="0"/>
      <path style="fill:#000000;fill-opacity:1;fill-rule:nonzero;stroke:none;stroke-width:0.35277775" d="m 48.916612,123.7949 c 0.19017,0.0109 0.51262,-0.0166 0.74689,-0.0854 l -0.12816,0.51266 c -0.17501,-0.17089 -0.4451,-0.34728 -0.61873,-0.42722" id="path6150" inkscape:connector-curvature="0"/>
      <path style="fill:none;stroke:#000000;stroke-width:0.07029097;stroke-linecap:butt;stroke-linejoin:miter;stroke-miterlimit:10;stroke-opacity:1" d="m 55.875702,126.9203 -6.34449,1.58612" id="path6152" inkscape:connector-curvature="0"/>
      <path style="fill:#000000;fill-opacity:1;fill-rule:nonzero;stroke:none;stroke-width:0.35277775" d="m 48.916612,128.65939 c 0.17363,-0.0786 0.44372,-0.25633 0.61873,-0.42722 l 0.12816,0.51266 c -0.23427,-0.0675 -0.55672,-0.0965 -0.74689,-0.0854" id="path6154" inkscape:connector-curvature="0"/>
      <path style="fill:none;stroke:#000000;stroke-width:0.07029097;stroke-linecap:butt;stroke-linejoin:miter;stroke-miterlimit:10;stroke-opacity:1" d="m 56.356632,127.94417 -7.41384,5.56175" id="path6156" inkscape:connector-curvature="0"/>
      <path style="fill:#000000;fill-opacity:1;fill-rule:nonzero;stroke:none;stroke-width:0.35277775" d="m 48.435672,133.88491 c 0.12954,-0.14058 0.31006,-0.40792 0.40514,-0.63253 l 0.31557,0.42167 c -0.24253,0.0275 -0.54983,0.12679 -0.72071,0.21086" id="path6158" inkscape:connector-curvature="0"/>
      <path style="fill:none;stroke:#000000;stroke-width:0.07029097;stroke-linecap:butt;stroke-linejoin:miter;stroke-miterlimit:10;stroke-opacity:1" d="m 56.866512,130.25239 -8.53695,-10.67015" id="path6160" inkscape:connector-curvature="0"/>
      <path style="fill:#000000;fill-opacity:1;fill-rule:nonzero;stroke:none;stroke-width:0.35277775" d="m 47.934062,119.08754 c 0.1447,0.124 0.41755,0.29626 0.64493,0.38446 l -0.41204,0.32935 c -0.0345,-0.24116 -0.14331,-0.54571 -0.23289,-0.71381" id="path6162" inkscape:connector-curvature="0"/>
      <path style="fill:none;stroke:#000000;stroke-width:0.07029097;stroke-linecap:butt;stroke-linejoin:miter;stroke-miterlimit:10;stroke-opacity:1" d="m 56.356632,130.75951 -7.41384,-5.56038" id="path6164" inkscape:connector-curvature="0"/>
      <path style="fill:#000000;fill-opacity:1;fill-rule:nonzero;stroke:none;stroke-width:0.35277775" d="m 48.435672,124.82018 c 0.17088,0.084 0.47818,0.18189 0.72071,0.21082 l -0.31557,0.42167 c -0.0951,-0.22461 -0.2756,-0.49195 -0.40514,-0.63249" id="path6166" inkscape:connector-curvature="0"/>
      <path style="fill:none;stroke:#000000;stroke-width:0.07029097;stroke-linecap:butt;stroke-linejoin:miter;stroke-miterlimit:10;stroke-opacity:1" d="m 55.875702,131.78475 -6.34449,-1.58612" id="path6168" inkscape:connector-curvature="0"/>
      <path style="fill:#000000;fill-opacity:1;fill-rule:nonzero;stroke:none;stroke-width:0.35277775" d="m 48.916612,130.04432 c 0.19017,0.0124 0.51262,-0.0166 0.74689,-0.0854 l -0.12816,0.51262 c -0.17501,-0.17088 -0.4451,-0.34727 -0.61873,-0.42718" id="path6170" inkscape:connector-curvature="0"/>
      <path style="fill:none;stroke:#000000;stroke-width:0.07029097;stroke-linecap:butt;stroke-linejoin:miter;stroke-miterlimit:10;stroke-opacity:1" d="m 55.875702,133.16968 -6.34449,1.58613" id="path6172" inkscape:connector-curvature="0"/>
      <path style="fill:#000000;fill-opacity:1;fill-rule:nonzero;stroke:none;stroke-width:0.35277775" d="m 48.916612,134.91015 c 0.17363,-0.0799 0.44372,-0.25629 0.61873,-0.42718 l 0.12816,0.51262 c -0.23427,-0.0689 -0.55672,-0.0965 -0.74689,-0.0854" id="path6174" inkscape:connector-curvature="0"/>
    </g>
  </g>
</svg>