<!-- Created with Inkscape (http://www.inkscape.org/) --><svg xmlns:dc="http://purl.org/dc/elements/1.1/" xmlns:cc="http://creativecommons.org/ns#" xmlns:rdf="http://www.w3.org/1999/02/22-rdf-syntax-ns#" xmlns:svg="http://www.w3.org/2000/svg" xmlns="http://www.w3.org/2000/svg" xmlns:sodipodi="http://sodipodi.sourceforge.net/DTD/sodipodi-0.dtd" xmlns:inkscape="http://www.inkscape.org/namespaces/inkscape" width="210.13225mm" height="152.82982mm" viewBox="0 0 210.13225 152.82982" version="1.1" id="svg8" inkscape:version="0.92.2 2405546, 2018-03-11" sodipodi:docname="sleep-r-2.svg">
  <defs id="defs2">
    <marker inkscape:isstock="true" style="overflow:visible" id="marker11171" refX="0.0" refY="0.0" orient="auto" inkscape:stockid="Arrow2Sstart">
      <path transform="scale(0.3) translate(-2.3,0)" d="M 8.7185878,4.0337352 L -2.2072895,0.016013256 L 8.7185884,-4.0017078 C 6.9730900,-1.6296469 6.9831476,1.6157441 8.7185878,4.0337352 z " style="fill-rule:evenodd;stroke-width:0.625;stroke-linejoin:round;stroke:#eb801a;stroke-opacity:1;fill:#eb801a;fill-opacity:1" id="path11169"/>
    </marker>
    <marker inkscape:isstock="true" style="overflow:visible" id="marker11131" refX="0.0" refY="0.0" orient="auto" inkscape:stockid="Arrow2Sstart">
      <path transform="scale(0.3) translate(-2.3,0)" d="M 8.7185878,4.0337352 L -2.2072895,0.016013256 L 8.7185884,-4.0017078 C 6.9730900,-1.6296469 6.9831476,1.6157441 8.7185878,4.0337352 z " style="fill-rule:evenodd;stroke-width:0.625;stroke-linejoin:round;stroke:#eb801a;stroke-opacity:1;fill:#eb801a;fill-opacity:1" id="path11129"/>
    </marker>
    <marker inkscape:stockid="Arrow2Sstart" orient="auto" refY="0.0" refX="0.0" id="marker11115" style="overflow:visible" inkscape:isstock="true" inkscape:collect="always">
      <path id="path11113" style="fill-rule:evenodd;stroke-width:0.625;stroke-linejoin:round;stroke:#eb801a;stroke-opacity:1;fill:#eb801a;fill-opacity:1" d="M 8.7185878,4.0337352 L -2.2072895,0.016013256 L 8.7185884,-4.0017078 C 6.9730900,-1.6296469 6.9831476,1.6157441 8.7185878,4.0337352 z " transform="scale(0.3) translate(-2.3,0)"/>
    </marker>
    <marker inkscape:stockid="Arrow1Mstart" orient="auto" refY="0" refX="0" id="marker11071" style="overflow:visible" inkscape:isstock="true">
      <path id="path11069" d="M 0,0 5,-5 -12.5,0 5,5 Z" style="fill:#eb801a;fill-opacity:1;fill-rule:evenodd;stroke:#eb801a;stroke-width:1.00000003pt;stroke-opacity:1" transform="matrix(0.4,0,0,0.4,4,0)" inkscape:connector-curvature="0"/>
    </marker>
    <marker inkscape:stockid="Arrow1Mstart" orient="auto" refY="0" refX="0" id="marker11061" style="overflow:visible" inkscape:isstock="true">
      <path id="path11059" d="M 0,0 5,-5 -12.5,0 5,5 Z" style="fill:#eb801a;fill-opacity:1;fill-rule:evenodd;stroke:#eb801a;stroke-width:1.00000003pt;stroke-opacity:1" transform="matrix(0.4,0,0,0.4,4,0)" inkscape:connector-curvature="0"/>
    </marker>
    <marker inkscape:stockid="Arrow1Mend" orient="auto" refY="0" refX="0" id="marker9824" style="overflow:visible" inkscape:isstock="true">
      <path id="path9822" d="M 0,0 5,-5 -12.5,0 5,5 Z" style="fill:#eb801a;fill-opacity:1;fill-rule:evenodd;stroke:#eb801a;stroke-width:1.00000003pt;stroke-opacity:1" transform="matrix(-0.4,0,0,-0.4,-4,0)" inkscape:connector-curvature="0"/>
    </marker>
    <marker inkscape:isstock="true" style="overflow:visible" id="marker5282" refX="0" refY="0" orient="auto" inkscape:stockid="Arrow1Send">
      <path inkscape:connector-curvature="0" transform="matrix(-0.2,0,0,-0.2,-1.2,0)" style="fill:#000000;fill-opacity:1;fill-rule:evenodd;stroke:#000000;stroke-width:1.00000003pt;stroke-opacity:1" d="M 0,0 5,-5 -12.5,0 5,5 Z" id="path5280"/>
    </marker>
    <marker inkscape:stockid="Arrow1Send" orient="auto" refY="0" refX="0" id="marker4077" style="overflow:visible" inkscape:isstock="true">
      <path inkscape:connector-curvature="0" id="path4075" d="M 0,0 5,-5 -12.5,0 5,5 Z" style="fill:#000000;fill-opacity:1;fill-rule:evenodd;stroke:#000000;stroke-width:1.00000003pt;stroke-opacity:1" transform="matrix(-0.2,0,0,-0.2,-1.2,0)"/>
    </marker>
    <marker inkscape:isstock="true" style="overflow:visible" id="Arrow2Sstart" refX="0" refY="0" orient="auto" inkscape:stockid="Arrow2Sstart">
      <path inkscape:connector-curvature="0" transform="matrix(0.3,0,0,0.3,-0.69,0)" d="M 8.7185878,4.0337352 -2.2072895,0.01601326 8.7185884,-4.0017078 c -1.7454984,2.3720609 -1.7354408,5.6174519 -6e-7,8.035443 z" style="fill:#000000;fill-opacity:1;fill-rule:evenodd;stroke:#000000;stroke-width:0.625;stroke-linejoin:round;stroke-opacity:1" id="path3481"/>
    </marker>
    <marker inkscape:isstock="true" style="overflow:visible" id="Arrow1Mend" refX="0" refY="0" orient="auto" inkscape:stockid="Arrow1Mend">
      <path inkscape:connector-curvature="0" transform="matrix(-0.4,0,0,-0.4,-4,0)" style="fill:#000000;fill-opacity:1;fill-rule:evenodd;stroke:#000000;stroke-width:1.00000003pt;stroke-opacity:1" d="M 0,0 5,-5 -12.5,0 5,5 Z" id="path3460"/>
    </marker>
    <marker inkscape:stockid="Arrow1Mend" orient="auto" refY="0" refX="0" id="marker7362" style="overflow:visible" inkscape:isstock="true">
      <path id="path7360" d="M 0,0 5,-5 -12.5,0 5,5 Z" style="fill:#000000;fill-opacity:1;fill-rule:evenodd;stroke:#000000;stroke-width:1.00000003pt;stroke-opacity:1" transform="matrix(-0.4,0,0,-0.4,-4,0)" inkscape:connector-curvature="0"/>
    </marker>
    <inkscape:path-effect effect="spiro" id="path-effect4900" is_visible="true"/>
    <inkscape:path-effect is_visible="true" id="path-effect4896" effect="spiro"/>
    <inkscape:path-effect is_visible="true" id="path-effect4892" effect="spiro"/>
    <marker inkscape:isstock="true" style="overflow:visible" id="Arrow2Lstart" refX="0" refY="0" orient="auto" inkscape:stockid="Arrow2Lstart">
      <path inkscape:connector-curvature="0" transform="matrix(1.1,0,0,1.1,1.1,0)" d="M 8.7185878,4.0337352 -2.2072895,0.01601326 8.7185884,-4.0017078 c -1.7454984,2.3720609 -1.7354408,5.6174519 -6e-7,8.035443 z" style="fill:#000000;fill-opacity:1;fill-rule:evenodd;stroke:#000000;stroke-width:0.625;stroke-linejoin:round;stroke-opacity:1" id="path993"/>
    </marker>
    <marker inkscape:isstock="true" style="overflow:visible" id="Arrow1Sstart" refX="0" refY="0" orient="auto" inkscape:stockid="Arrow1Sstart">
      <path inkscape:connector-curvature="0" transform="matrix(0.2,0,0,0.2,1.2,0)" style="fill:#eb801a;fill-opacity:1;fill-rule:evenodd;stroke:#eb801a;stroke-width:1.00000003pt;stroke-opacity:1" d="M 0,0 5,-5 -12.5,0 5,5 Z" id="path987"/>
    </marker>
    <marker inkscape:isstock="true" style="overflow:visible" id="Arrow2Lend" refX="0" refY="0" orient="auto" inkscape:stockid="Arrow2Lend">
      <path inkscape:connector-curvature="0" transform="matrix(-1.1,0,0,-1.1,-1.1,0)" d="M 8.7185878,4.0337352 -2.2072895,0.01601326 8.7185884,-4.0017078 c -1.7454984,2.3720609 -1.7354408,5.6174519 -6e-7,8.035443 z" style="fill:#000000;fill-opacity:1;fill-rule:evenodd;stroke:#000000;stroke-width:0.625;stroke-linejoin:round;stroke-opacity:1" id="path996"/>
    </marker>
    <marker inkscape:isstock="true" style="overflow:visible" id="Arrow1Lend" refX="0" refY="0" orient="auto" inkscape:stockid="Arrow1Lend">
      <path inkscape:connector-curvature="0" transform="matrix(-0.8,0,0,-0.8,-10,0)" style="fill:#eb801a;fill-opacity:1;fill-rule:evenodd;stroke:#eb801a;stroke-width:1.00000003pt;stroke-opacity:1" d="M 0,0 5,-5 -12.5,0 5,5 Z" id="path978"/>
    </marker>
    <marker inkscape:stockid="Arrow1Mend" orient="auto" refY="0" refX="0" id="marker7362-7" style="overflow:visible" inkscape:isstock="true">
      <path id="path7360-6" d="M 0,0 5,-5 -12.5,0 5,5 Z" style="fill:#000000;fill-opacity:1;fill-rule:evenodd;stroke:#000000;stroke-width:1.00000003pt;stroke-opacity:1" transform="matrix(-0.4,0,0,-0.4,-4,0)" inkscape:connector-curvature="0"/>
    </marker>
    <marker inkscape:stockid="Arrow1Send" orient="auto" refY="0" refX="0" id="Arrow1Send" style="overflow:visible" inkscape:isstock="true" inkscape:collect="always">
      <path id="path3466" d="M 0,0 5,-5 -12.5,0 5,5 Z" style="fill:#000000;fill-opacity:1;fill-rule:evenodd;stroke:#000000;stroke-width:1.00000003pt;stroke-opacity:1" transform="matrix(-0.2,0,0,-0.2,-1.2,0)" inkscape:connector-curvature="0"/>
    </marker>
    <marker inkscape:isstock="true" style="overflow:visible" id="marker4077-6" refX="0" refY="0" orient="auto" inkscape:stockid="Arrow1Send">
      <path transform="matrix(-0.2,0,0,-0.2,-1.2,0)" style="fill:#000000;fill-opacity:1;fill-rule:evenodd;stroke:#000000;stroke-width:1.00000003pt;stroke-opacity:1" d="M 0,0 5,-5 -12.5,0 5,5 Z" id="path4075-7" inkscape:connector-curvature="0"/>
    </marker>
  </defs>
  <metadata id="metadata5">
    <rdf:RDF>
      <cc:Work rdf:about="">
        <dc:format>image/svg+xml</dc:format>
        <dc:type rdf:resource="http://purl.org/dc/dcmitype/StillImage"/>
        <dc:title/>
      </cc:Work>
    </rdf:RDF>
  </metadata>
  <g transform="translate(0.31803584,-5.5252997)" id="layer1" inkscape:groupmode="layer" inkscape:label="Base" style="display:inline">
    <rect style="opacity:1;fill:#eb801a;fill-opacity:0.50196081;stroke:#22373a;stroke-width:1;stroke-linecap:square;stroke-linejoin:round;stroke-miterlimit:4;stroke-dasharray:none;stroke-dashoffset:0;stroke-opacity:1" id="rect914" width="59.710461" height="30.925945" x="0.36178109" y="66.471939"/>
    <rect y="111.08374" x="0.20534946" height="46.771378" width="209.36072" id="rect2284" style="opacity:1;fill:#eb801a;fill-opacity:0.50196078;stroke:#22373a;stroke-width:1;stroke-linecap:square;stroke-linejoin:round;stroke-miterlimit:4;stroke-dasharray:none;stroke-dashoffset:0;stroke-opacity:1"/>
    <path style="fill:none;fill-rule:evenodd;stroke:#000000;stroke-width:2;stroke-linecap:butt;stroke-linejoin:miter;stroke-miterlimit:4;stroke-dasharray:none;stroke-opacity:1;marker-end:url(#Arrow1Send)" d="M 183.17815,97.393068 V 107.98657" id="path3425" inkscape:connector-curvature="0" sodipodi:nodetypes="cc"/>
    <path sodipodi:nodetypes="cc" inkscape:connector-curvature="0" id="path4073" d="M 30.217011,97.003296 V 107.5968" style="fill:none;fill-rule:evenodd;stroke:#000000;stroke-width:2;stroke-linecap:butt;stroke-linejoin:miter;stroke-miterlimit:4;stroke-dasharray:none;stroke-opacity:1;marker-end:url(#marker4077-6)"/>
    <rect style="opacity:1;fill:#eb801a;fill-opacity:0.50196078;stroke:#22373a;stroke-width:1;stroke-linecap:square;stroke-linejoin:round;stroke-miterlimit:4;stroke-dasharray:none;stroke-dashoffset:0;stroke-opacity:1" id="rect936" width="52.272125" height="91.372581" x="157.04208" y="6.025301"/>
    <rect y="66.471939" x="86.293518" height="30.925941" width="50.088757" id="rect916" style="opacity:1;fill:none;fill-opacity:0.50196078;stroke:#22373a;stroke-width:1;stroke-linecap:square;stroke-linejoin:round;stroke-miterlimit:4;stroke-dasharray:none;stroke-dashoffset:0;stroke-opacity:1"/>
    <rect style="opacity:1;fill:#eb801a;fill-opacity:0.50196081;stroke:#22373a;stroke-width:1;stroke-linecap:square;stroke-linejoin:round;stroke-miterlimit:4;stroke-dasharray:none;stroke-dashoffset:0;stroke-opacity:1" id="rect4582" width="26.836309" height="18.898809" x="57.350552" y="6.0253015"/>
    <text id="text888" y="18.099375" x="70.496162" style="font-style:normal;font-variant:normal;font-weight:normal;font-stretch:normal;font-size:4.23333311px;line-height:75%;font-family:serif;-inkscape-font-specification:serif;text-align:center;letter-spacing:0px;word-spacing:0px;text-anchor:middle;fill:#000000;fill-opacity:1;stroke:none;stroke-width:0.26458332px;stroke-linecap:butt;stroke-linejoin:miter;stroke-opacity:1" xml:space="preserve"><tspan style="font-style:normal;font-variant:normal;font-weight:300;font-stretch:normal;font-size:10.58333302px;font-family:'Fira Sans';-inkscape-font-specification:'Fira Sans, Light';font-variant-ligatures:normal;font-variant-caps:normal;font-variant-numeric:normal;font-feature-settings:normal;text-align:center;writing-mode:lr-tb;text-anchor:middle;stroke-width:0.26458332px" y="18.099375" x="70.496162" id="tspan886" sodipodi:role="line">DSL<tspan id="tspan906" style="font-size:64.99999762%;baseline-shift:sub">i+1</tspan></tspan></text>
    <text xml:space="preserve" style="font-style:normal;font-variant:normal;font-weight:normal;font-stretch:normal;font-size:4.23333311px;line-height:75%;font-family:serif;-inkscape-font-specification:serif;text-align:center;letter-spacing:0px;word-spacing:0px;text-anchor:middle;fill:#000000;fill-opacity:1;stroke:none;stroke-width:0.26458332px;stroke-linecap:butt;stroke-linejoin:miter;stroke-opacity:1" x="30.218168" y="78.220161" id="text892"><tspan sodipodi:role="line" id="tspan890" x="30.218168" y="78.220161" style="font-style:normal;font-variant:normal;font-weight:300;font-stretch:normal;font-size:10.58333302px;line-height:125%;font-family:'Fira Sans';-inkscape-font-specification:'Fira Sans, Light';font-variant-ligatures:normal;font-variant-caps:normal;font-variant-numeric:normal;font-feature-settings:normal;text-align:center;writing-mode:lr-tb;text-anchor:middle;stroke-width:0.26458332px">Programs</tspan><tspan id="tspan898" sodipodi:role="line" x="30.218168" y="91.449326" style="font-style:normal;font-variant:normal;font-weight:300;font-stretch:normal;font-size:10.58333302px;line-height:125%;font-family:'Fira Sans';-inkscape-font-specification:'Fira Sans, Light';font-variant-ligatures:normal;font-variant-caps:normal;font-variant-numeric:normal;font-feature-settings:normal;text-align:center;writing-mode:lr-tb;text-anchor:middle;stroke-width:0.26458332px">(functions)</tspan></text>
    <text id="text896" y="77.860329" x="111.32155" style="font-style:normal;font-variant:normal;font-weight:normal;font-stretch:normal;font-size:4.23333311px;line-height:75%;font-family:serif;-inkscape-font-specification:serif;text-align:center;letter-spacing:0px;word-spacing:0px;text-anchor:middle;fill:#000000;fill-opacity:1;stroke:none;stroke-width:0.26458332px;stroke-linecap:butt;stroke-linejoin:miter;stroke-opacity:1" xml:space="preserve"><tspan style="font-style:normal;font-variant:normal;font-weight:300;font-stretch:normal;font-size:10.58333302px;line-height:125%;font-family:'Fira Sans';-inkscape-font-specification:'Fira Sans, Light';font-variant-ligatures:normal;font-variant-caps:normal;font-variant-numeric:normal;font-feature-settings:normal;text-align:center;writing-mode:lr-tb;text-anchor:middle;stroke-width:0.26458332px" y="77.860329" x="111.32155" id="tspan894" sodipodi:role="line">Data</tspan><tspan id="tspan900" style="font-style:normal;font-variant:normal;font-weight:300;font-stretch:normal;font-size:10.58333302px;line-height:125%;font-family:'Fira Sans';-inkscape-font-specification:'Fira Sans, Light';font-variant-ligatures:normal;font-variant-caps:normal;font-variant-numeric:normal;font-feature-settings:normal;text-align:center;writing-mode:lr-tb;text-anchor:middle;stroke-width:0.26458332px" y="91.089493" x="111.32155" sodipodi:role="line">(io pairs)</tspan></text>
    <text id="text965" y="18.099375" x="183.23553" style="font-style:normal;font-variant:normal;font-weight:normal;font-stretch:normal;font-size:4.23333311px;line-height:75%;font-family:serif;-inkscape-font-specification:serif;text-align:center;letter-spacing:0px;word-spacing:0px;text-anchor:middle;fill:#000000;fill-opacity:1;stroke:none;stroke-width:0.26458332px;stroke-linecap:butt;stroke-linejoin:miter;stroke-opacity:1" xml:space="preserve"><tspan style="font-style:normal;font-variant:normal;font-weight:300;font-stretch:normal;font-size:10.58333302px;font-family:'Fira Sans';-inkscape-font-specification:'Fira Sans, Light';font-variant-ligatures:normal;font-variant-caps:normal;font-variant-numeric:normal;font-feature-settings:normal;text-align:center;writing-mode:lr-tb;text-anchor:middle;stroke-width:0.26458332px" y="18.099375" x="183.23553" id="tspan963" sodipodi:role="line">Dreams</tspan></text>
    <g style="display:inline" inkscape:groupmode="layer" id="g8439" inkscape:label="DC">
      <g inkscape:groupmode="layer" id="g8381" inkscape:label="Empty" style="display:inline"/>
      <g style="display:inline" inkscape:groupmode="layer" id="g8395" inkscape:label="t1">
        <text xml:space="preserve" style="font-style:normal;font-variant:normal;font-weight:normal;font-stretch:normal;font-size:4.23333311px;line-height:75%;font-family:serif;-inkscape-font-specification:serif;text-align:center;letter-spacing:0px;word-spacing:0px;text-anchor:middle;fill:#000000;fill-opacity:1;stroke:none;stroke-width:0.26458332px;stroke-linecap:butt;stroke-linejoin:miter;stroke-opacity:1" x="182.70995" y="30.820045" id="text8393"><tspan sodipodi:role="line" id="tspan8391" x="182.70995" y="30.820045" style="font-style:normal;font-variant:normal;font-weight:300;font-stretch:normal;font-size:7.05555534px;font-family:'Fira Sans';-inkscape-font-specification:'Fira Sans, Light';font-variant-ligatures:normal;font-variant-caps:normal;font-variant-numeric:normal;font-feature-settings:normal;text-align:center;writing-mode:lr-tb;text-anchor:middle;stroke-width:0.26458332px">-P<tspan style="font-size:64.99999762%;baseline-shift:sub" id="tspan8385">i<tspan id="tspan13769">1</tspan></tspan> &amp; dream<tspan style="font-size:64.99999762%;baseline-shift:sub" id="tspan8389">n<tspan id="tspan13767">1</tspan></tspan></tspan></text>
      </g>
      <g style="display:inline" inkscape:groupmode="layer" id="g8409" inkscape:label="t2">
        <text xml:space="preserve" style="font-style:normal;font-variant:normal;font-weight:normal;font-stretch:normal;font-size:4.23333311px;line-height:75%;font-family:serif;-inkscape-font-specification:serif;text-align:center;letter-spacing:0px;word-spacing:0px;text-anchor:middle;fill:#000000;fill-opacity:1;stroke:none;stroke-width:0.26458332px;stroke-linecap:butt;stroke-linejoin:miter;stroke-opacity:1" x="183.0145" y="41.075024" id="text8407"><tspan sodipodi:role="line" id="tspan8405" x="183.0145" y="41.075024" style="font-style:normal;font-variant:normal;font-weight:300;font-stretch:normal;font-size:7.05555534px;font-family:'Fira Sans';-inkscape-font-specification:'Fira Sans, Light';font-variant-ligatures:normal;font-variant-caps:normal;font-variant-numeric:normal;font-feature-settings:normal;text-align:center;writing-mode:lr-tb;text-anchor:middle;stroke-width:0.26458332px">-P<tspan style="font-size:64.99999762%;baseline-shift:sub" id="tspan8399">i<tspan id="tspan13775">2</tspan></tspan> &amp; dream<tspan style="font-size:64.99999762%;baseline-shift:sub" id="tspan8403">n<tspan id="tspan13773">2</tspan></tspan></tspan></text>
      </g>
      <g inkscape:groupmode="layer" id="g8423" inkscape:label="t3" style="display:inline">
        <text xml:space="preserve" style="font-style:normal;font-variant:normal;font-weight:normal;font-stretch:normal;font-size:4.23333311px;line-height:75%;font-family:serif;-inkscape-font-specification:serif;text-align:center;letter-spacing:0px;word-spacing:0px;text-anchor:middle;fill:#000000;fill-opacity:1;stroke:none;stroke-width:0.26458332px;stroke-linecap:butt;stroke-linejoin:miter;stroke-opacity:1" x="183.05032" y="51.304787" id="text8421"><tspan sodipodi:role="line" id="tspan8419" x="183.05032" y="51.304787" style="font-style:normal;font-variant:normal;font-weight:300;font-stretch:normal;font-size:7.05555534px;font-family:'Fira Sans';-inkscape-font-specification:'Fira Sans, Light';font-variant-ligatures:normal;font-variant-caps:normal;font-variant-numeric:normal;font-feature-settings:normal;text-align:center;writing-mode:lr-tb;text-anchor:middle;stroke-width:0.26458332px">-P<tspan style="font-size:4.58611059px;baseline-shift:sub;stroke-width:0.26458332px" id="tspan8413">i<tspan id="tspan13781">3</tspan></tspan> &amp; dream<tspan style="font-size:4.58611059px;baseline-shift:sub;stroke-width:0.26458332px" id="tspan8417">n<tspan id="tspan13779">3</tspan></tspan></tspan></text>
      </g>
      <g inkscape:groupmode="layer" id="g8437" inkscape:label="t4" style="display:inline">
        <text xml:space="preserve" style="font-style:normal;font-variant:normal;font-weight:normal;font-stretch:normal;font-size:4.23333311px;line-height:75%;font-family:serif;-inkscape-font-specification:serif;text-align:center;letter-spacing:0px;word-spacing:0px;text-anchor:middle;fill:#000000;fill-opacity:1;stroke:none;stroke-width:0.26458332px;stroke-linecap:butt;stroke-linejoin:miter;stroke-opacity:1" x="183.19363" y="61.584991" id="text8435"><tspan sodipodi:role="line" id="tspan8433" x="183.19363" y="61.584991" style="font-style:normal;font-variant:normal;font-weight:300;font-stretch:normal;font-size:7.05555534px;font-family:'Fira Sans';-inkscape-font-specification:'Fira Sans, Light';font-variant-ligatures:normal;font-variant-caps:normal;font-variant-numeric:normal;font-feature-settings:normal;text-align:center;writing-mode:lr-tb;text-anchor:middle;stroke-width:0.26458332px">-P<tspan style="font-size:4.58611059px;baseline-shift:sub;stroke-width:0.26458332px" id="tspan8427">i<tspan id="tspan13787">4</tspan></tspan> &amp; dream<tspan style="font-size:4.58611059px;baseline-shift:sub;stroke-width:0.26458332px" id="tspan8431">n<tspan id="tspan13785">4</tspan></tspan></tspan></text>
        <text id="text2076" y="77.459984" x="183.19363" style="font-style:normal;font-variant:normal;font-weight:normal;font-stretch:normal;font-size:4.23333311px;line-height:75%;font-family:serif;-inkscape-font-specification:serif;text-align:center;letter-spacing:0px;word-spacing:0px;text-anchor:middle;fill:#000000;fill-opacity:1;stroke:none;stroke-width:0.26458332px;stroke-linecap:butt;stroke-linejoin:miter;stroke-opacity:1" xml:space="preserve"><tspan style="font-style:normal;font-variant:normal;font-weight:300;font-stretch:normal;font-size:7.05555534px;font-family:'Fira Sans';-inkscape-font-specification:'Fira Sans, Light';font-variant-ligatures:normal;font-variant-caps:normal;font-variant-numeric:normal;font-feature-settings:normal;text-align:center;writing-mode:lr-tb;text-anchor:middle;stroke-width:0.26458332px" y="77.459984" x="183.19363" id="tspan2074" sodipodi:role="line">...</tspan></text>
      </g>
    </g>
    <text xml:space="preserve" style="font-style:normal;font-variant:normal;font-weight:normal;font-stretch:normal;font-size:4.23333311px;line-height:75%;font-family:serif;-inkscape-font-specification:serif;text-align:center;letter-spacing:0px;word-spacing:0px;text-anchor:middle;fill:#000000;fill-opacity:1;stroke:none;stroke-width:0.26458332px;stroke-linecap:butt;stroke-linejoin:miter;stroke-opacity:1" x="104.93934" y="118.70016" id="text7860"><tspan sodipodi:role="line" id="tspan7858" x="104.93934" y="118.70016" style="font-style:normal;font-variant:normal;font-weight:300;font-stretch:normal;font-size:7.05555534px;font-family:'Fira Sans';-inkscape-font-specification:'Fira Sans, Light';font-variant-ligatures:normal;font-variant-caps:normal;font-variant-numeric:normal;font-feature-settings:normal;text-align:center;writing-mode:lr-tb;text-anchor:middle;stroke-width:0.26458332px">Training Recognition Model</tspan></text>
    <g transform="matrix(1.1012424,0,0,1.1012424,40.301976,0.82759874)" id="g8185">
      <path inkscape:connector-curvature="0" id="path6058" d="m 68.333162,116.85234 c 0,-1.55441 1.25953,-2.81393 2.81258,-2.81393 1.55442,0 2.81395,1.25952 2.81395,2.81393 0,1.55444 -1.25953,2.81397 -2.81395,2.81397 -1.55305,0 -2.81258,-1.25953 -2.81258,-2.81397 z m 0,0" style="fill:#7f7fff;fill-opacity:1;fill-rule:nonzero;stroke:none;stroke-width:0.35277775"/>
      <path inkscape:connector-curvature="0" id="path6060" d="m 68.333162,123.10176 c 0,-1.55307 1.25953,-2.81259 2.81258,-2.81259 1.55442,0 2.81395,1.25952 2.81395,2.81259 0,1.55441 -1.25953,2.81393 -2.81395,2.81393 -1.55305,0 -2.81258,-1.25952 -2.81258,-2.81393 z m 0,0" style="fill:#7f7fff;fill-opacity:1;fill-rule:nonzero;stroke:none;stroke-width:0.35277775"/>
      <path inkscape:connector-curvature="0" id="path6062" d="m 68.333162,129.35253 c 0,-1.55441 1.25953,-2.81394 2.81258,-2.81394 1.55442,0 2.81395,1.25953 2.81395,2.81394 0,1.55444 -1.25953,2.81396 -2.81395,2.81396 -1.55305,0 -2.81258,-1.25952 -2.81258,-2.81396 z m 0,0" style="fill:#7f7fff;fill-opacity:1;fill-rule:nonzero;stroke:none;stroke-width:0.35277775"/>
      <path inkscape:connector-curvature="0" id="path6064" d="m 68.333162,135.60195 c 0,-1.55307 1.25953,-2.81259 2.81258,-2.81259 1.55442,0 2.81395,1.25952 2.81395,2.81259 0,1.55441 -1.25953,2.81393 -2.81395,2.81393 -1.55305,0 -2.81258,-1.25952 -2.81258,-2.81393 z m 0,0" style="fill:#7f7fff;fill-opacity:1;fill-rule:nonzero;stroke:none;stroke-width:0.35277775"/>
      <path inkscape:connector-curvature="0" id="path6066" d="m 55.832982,119.97774 c 0,-1.55441 1.25953,-2.81397 2.81258,-2.81397 1.55442,0 2.81395,1.25956 2.81395,2.81397 0,1.55303 -1.25953,2.81259 -2.81395,2.81259 -1.55305,0 -2.81258,-1.25956 -2.81258,-2.81259 z m 0,0" style="fill:#7f7fff;fill-opacity:1;fill-rule:nonzero;stroke:none;stroke-width:0.35277775"/>
      <path inkscape:connector-curvature="0" id="path6068" d="m 55.832982,126.22713 c 0,-1.55441 1.25953,-2.81394 2.81258,-2.81394 1.55442,0 2.81395,1.25953 2.81395,2.81394 0,1.55444 -1.25953,2.81396 -2.81395,2.81396 -1.55305,0 -2.81258,-1.25952 -2.81258,-2.81396 z m 0,0" style="fill:#7f7fff;fill-opacity:1;fill-rule:nonzero;stroke:none;stroke-width:0.35277775"/>
      <path inkscape:connector-curvature="0" id="path6070" d="m 55.832982,132.47792 c 0,-1.55444 1.25953,-2.81396 2.81258,-2.81396 1.55442,0 2.81395,1.25952 2.81395,2.81396 0,1.55304 -1.25953,2.8126 -2.81395,2.8126 -1.55305,0 -2.81258,-1.25956 -2.81258,-2.8126 z m 0,0" style="fill:#7f7fff;fill-opacity:1;fill-rule:nonzero;stroke:none;stroke-width:0.35277775"/>
      <path inkscape:connector-curvature="0" id="path6072" d="m 43.332802,116.85234 c 0,-1.55441 1.25952,-2.81393 2.81257,-2.81393 1.55443,0 2.81395,1.25952 2.81395,2.81393 0,1.55444 -1.25952,2.81397 -2.81395,2.81397 -1.55305,0 -2.81257,-1.25953 -2.81257,-2.81397 z m 0,0" style="fill:#7f7fff;fill-opacity:1;fill-rule:nonzero;stroke:none;stroke-width:0.35277775"/>
      <path inkscape:connector-curvature="0" id="path6074" d="m 43.332802,123.10176 c 0,-1.55307 1.25952,-2.81259 2.81257,-2.81259 1.55443,0 2.81395,1.25952 2.81395,2.81259 0,1.55441 -1.25952,2.81393 -2.81395,2.81393 -1.55305,0 -2.81257,-1.25952 -2.81257,-2.81393 z m 0,0" style="fill:#7f7fff;fill-opacity:1;fill-rule:nonzero;stroke:none;stroke-width:0.35277775"/>
      <path inkscape:connector-curvature="0" id="path6076" d="m 43.332802,129.35253 c 0,-1.55441 1.25952,-2.81394 2.81257,-2.81394 1.55443,0 2.81395,1.25953 2.81395,2.81394 0,1.55444 -1.25952,2.81396 -2.81395,2.81396 -1.55305,0 -2.81257,-1.25952 -2.81257,-2.81396 z m 0,0" style="fill:#7f7fff;fill-opacity:1;fill-rule:nonzero;stroke:none;stroke-width:0.35277775"/>
      <path inkscape:connector-curvature="0" id="path6078" d="m 43.332802,135.60195 c 0,-1.55307 1.25952,-2.81259 2.81257,-2.81259 1.55443,0 2.81395,1.25952 2.81395,2.81259 0,1.55441 -1.25952,2.81393 -2.81395,2.81393 -1.55305,0 -2.81257,-1.25952 -2.81257,-2.81393 z m 0,0" style="fill:#7f7fff;fill-opacity:1;fill-rule:nonzero;stroke:none;stroke-width:0.35277775"/>
      <path inkscape:connector-curvature="0" id="path6080" d="m 68.375882,117.54551 -6.34448,1.58613" style="fill:none;stroke:#000000;stroke-width:0.07029097;stroke-linecap:butt;stroke-linejoin:miter;stroke-miterlimit:10;stroke-opacity:1"/>
      <path inkscape:connector-curvature="0" id="path6082" d="m 61.416792,119.2846 c 0.17363,-0.0799 0.44373,-0.25633 0.61874,-0.42721 l 0.12816,0.51262 c -0.23427,-0.0675 -0.55673,-0.0965 -0.7469,-0.0854" style="fill:#000000;fill-opacity:1;fill-rule:nonzero;stroke:none;stroke-width:0.35277775"/>
      <path inkscape:connector-curvature="0" id="path6084" d="m 68.856812,118.56938 -7.41522,5.56038" style="fill:none;stroke:#000000;stroke-width:0.07029097;stroke-linecap:butt;stroke-linejoin:miter;stroke-miterlimit:10;stroke-opacity:1"/>
      <path inkscape:connector-curvature="0" id="path6086" d="m 60.935852,124.51012 c 0.12954,-0.14058 0.31006,-0.40792 0.40515,-0.63253 l 0.31557,0.42168 c -0.24254,0.0275 -0.54984,0.12678 -0.72072,0.21085" style="fill:#000000;fill-opacity:1;fill-rule:nonzero;stroke:none;stroke-width:0.35277775"/>
      <path inkscape:connector-curvature="0" id="path6088" d="m 69.366692,119.0765 -8.53694,10.67152" style="fill:none;stroke:#000000;stroke-width:0.07029097;stroke-linecap:butt;stroke-linejoin:miter;stroke-miterlimit:10;stroke-opacity:1"/>
      <path inkscape:connector-curvature="0" id="path6090" d="m 60.434252,130.24138 c 0.0896,-0.16813 0.19843,-0.47131 0.23289,-0.71247 l 0.41203,0.32936 c -0.22738,0.0868 -0.50023,0.25908 -0.64492,0.38311" style="fill:#000000;fill-opacity:1;fill-rule:nonzero;stroke:none;stroke-width:0.35277775"/>
      <path inkscape:connector-curvature="0" id="path6092" d="m 68.375882,122.40996 -6.34448,-1.58612" style="fill:none;stroke:#000000;stroke-width:0.07029097;stroke-linecap:butt;stroke-linejoin:miter;stroke-miterlimit:10;stroke-opacity:1"/>
      <path inkscape:connector-curvature="0" id="path6094" d="m 61.416792,120.6695 c 0.19017,0.0109 0.51263,-0.0166 0.7469,-0.0854 l -0.12816,0.51262 c -0.17501,-0.17088 -0.44511,-0.34727 -0.61874,-0.42721" style="fill:#000000;fill-opacity:1;fill-rule:nonzero;stroke:none;stroke-width:0.35277775"/>
      <path inkscape:connector-curvature="0" id="path6096" d="m 68.375882,123.7949 -6.34448,1.58612" style="fill:none;stroke:#000000;stroke-width:0.07029097;stroke-linecap:butt;stroke-linejoin:miter;stroke-miterlimit:10;stroke-opacity:1"/>
      <path inkscape:connector-curvature="0" id="path6098" d="m 61.416792,125.53536 c 0.17363,-0.0799 0.44373,-0.25632 0.61874,-0.42717 l 0.12816,0.51262 c -0.23427,-0.0689 -0.55673,-0.0978 -0.7469,-0.0854" style="fill:#000000;fill-opacity:1;fill-rule:nonzero;stroke:none;stroke-width:0.35277775"/>
      <path inkscape:connector-curvature="0" id="path6100" d="m 68.856812,124.82018 -7.41522,5.56037" style="fill:none;stroke:#000000;stroke-width:0.07029097;stroke-linecap:butt;stroke-linejoin:miter;stroke-miterlimit:10;stroke-opacity:1"/>
      <path inkscape:connector-curvature="0" id="path6102" d="m 60.935852,130.75951 c 0.12954,-0.14055 0.31006,-0.40788 0.40515,-0.63253 l 0.31557,0.42167 c -0.24254,0.0289 -0.54984,0.12679 -0.72072,0.21086" style="fill:#000000;fill-opacity:1;fill-rule:nonzero;stroke:none;stroke-width:0.35277775"/>
      <path inkscape:connector-curvature="0" id="path6104" d="m 68.856812,127.63548 -7.41522,-5.56175" style="fill:none;stroke:#000000;stroke-width:0.07029097;stroke-linecap:butt;stroke-linejoin:miter;stroke-miterlimit:10;stroke-opacity:1"/>
      <path inkscape:connector-curvature="0" id="path6106" d="m 60.935852,121.69478 c 0.17088,0.0841 0.47818,0.18327 0.72072,0.21082 l -0.31557,0.42171 c -0.0951,-0.22465 -0.27561,-0.49199 -0.40515,-0.63253" style="fill:#000000;fill-opacity:1;fill-rule:nonzero;stroke:none;stroke-width:0.35277775"/>
      <path inkscape:connector-curvature="0" id="path6108" d="m 68.375882,128.65939 -6.34448,-1.58613" style="fill:none;stroke:#000000;stroke-width:0.07029097;stroke-linecap:butt;stroke-linejoin:miter;stroke-miterlimit:10;stroke-opacity:1"/>
      <path inkscape:connector-curvature="0" id="path6110" d="m 61.416792,126.9203 c 0.19017,0.0109 0.51263,-0.018 0.7469,-0.0854 l -0.12816,0.51262 c -0.17501,-0.17085 -0.44511,-0.34724 -0.61874,-0.42718" style="fill:#000000;fill-opacity:1;fill-rule:nonzero;stroke:none;stroke-width:0.35277775"/>
      <path inkscape:connector-curvature="0" id="path6112" d="m 68.375882,130.04429 -6.34448,1.5875" style="fill:none;stroke:#000000;stroke-width:0.07029097;stroke-linecap:butt;stroke-linejoin:miter;stroke-miterlimit:10;stroke-opacity:1"/>
      <path inkscape:connector-curvature="0" id="path6114" d="m 61.416792,131.78479 c 0.17363,-0.0799 0.44373,-0.25633 0.61874,-0.42722 l 0.12816,0.51262 c -0.23427,-0.0675 -0.55673,-0.0965 -0.7469,-0.0854" style="fill:#000000;fill-opacity:1;fill-rule:nonzero;stroke:none;stroke-width:0.35277775"/>
      <path inkscape:connector-curvature="0" id="path6116" d="m 69.366692,133.37779 -8.53694,-10.67153" style="fill:none;stroke:#000000;stroke-width:0.07029097;stroke-linecap:butt;stroke-linejoin:miter;stroke-miterlimit:10;stroke-opacity:1"/>
      <path inkscape:connector-curvature="0" id="path6118" d="m 60.434252,122.2129 c 0.14469,0.12404 0.41754,0.2963 0.64492,0.3845 l -0.41203,0.32935 c -0.0345,-0.24254 -0.14332,-0.54571 -0.23289,-0.71385" style="fill:#000000;fill-opacity:1;fill-rule:nonzero;stroke:none;stroke-width:0.35277775"/>
      <path inkscape:connector-curvature="0" id="path6120" d="m 68.856812,133.88491 -7.41522,-5.56041" style="fill:none;stroke:#000000;stroke-width:0.07029097;stroke-linecap:butt;stroke-linejoin:miter;stroke-miterlimit:10;stroke-opacity:1"/>
      <path inkscape:connector-curvature="0" id="path6122" d="m 60.935852,127.94417 c 0.17088,0.0854 0.47818,0.1833 0.72072,0.21223 l -0.31557,0.42167 c -0.0951,-0.22599 -0.27561,-0.49195 -0.40515,-0.6339" style="fill:#000000;fill-opacity:1;fill-rule:nonzero;stroke:none;stroke-width:0.35277775"/>
      <path inkscape:connector-curvature="0" id="path6124" d="m 68.375882,134.91015 -6.34448,-1.58612" style="fill:none;stroke:#000000;stroke-width:0.07029097;stroke-linecap:butt;stroke-linejoin:miter;stroke-miterlimit:10;stroke-opacity:1"/>
      <path inkscape:connector-curvature="0" id="path6126" d="m 61.416792,133.16968 c 0.19017,0.0109 0.51263,-0.0166 0.7469,-0.0854 l -0.12816,0.51266 c -0.17501,-0.17089 -0.44511,-0.34727 -0.61874,-0.42721" style="fill:#000000;fill-opacity:1;fill-rule:nonzero;stroke:none;stroke-width:0.35277775"/>
      <path inkscape:connector-curvature="0" id="path6128" d="m 55.875702,119.28456 -6.34449,-1.58608" style="fill:none;stroke:#000000;stroke-width:0.07029097;stroke-linecap:butt;stroke-linejoin:miter;stroke-miterlimit:10;stroke-opacity:1"/>
      <path inkscape:connector-curvature="0" id="path6130" d="m 48.916612,117.54414 c 0.19017,0.0123 0.51262,-0.0166 0.74689,-0.0854 l -0.12816,0.51262 c -0.17501,-0.17089 -0.4451,-0.34728 -0.61873,-0.42718" style="fill:#000000;fill-opacity:1;fill-rule:nonzero;stroke:none;stroke-width:0.35277775"/>
      <path inkscape:connector-curvature="0" id="path6132" d="m 55.875702,120.6695 -6.34449,1.58612" style="fill:none;stroke:#000000;stroke-width:0.07029097;stroke-linecap:butt;stroke-linejoin:miter;stroke-miterlimit:10;stroke-opacity:1"/>
      <path inkscape:connector-curvature="0" id="path6134" d="m 48.916612,122.40996 c 0.17363,-0.0799 0.44372,-0.25629 0.61873,-0.42717 l 0.12816,0.51262 c -0.23427,-0.0689 -0.55672,-0.0965 -0.74689,-0.0854" style="fill:#000000;fill-opacity:1;fill-rule:nonzero;stroke:none;stroke-width:0.35277775"/>
      <path inkscape:connector-curvature="0" id="path6136" d="m 56.356632,121.69478 -7.41384,5.56038" style="fill:none;stroke:#000000;stroke-width:0.07029097;stroke-linecap:butt;stroke-linejoin:miter;stroke-miterlimit:10;stroke-opacity:1"/>
      <path inkscape:connector-curvature="0" id="path6138" d="m 48.435672,127.63548 c 0.12954,-0.14054 0.31006,-0.40788 0.40514,-0.63387 l 0.31557,0.42306 c -0.24253,0.0275 -0.54983,0.12537 -0.72071,0.21081" style="fill:#000000;fill-opacity:1;fill-rule:nonzero;stroke:none;stroke-width:0.35277775"/>
      <path inkscape:connector-curvature="0" id="path6140" d="m 56.866512,122.2019 -8.53695,10.67152" style="fill:none;stroke:#000000;stroke-width:0.07029097;stroke-linecap:butt;stroke-linejoin:miter;stroke-miterlimit:10;stroke-opacity:1"/>
      <path inkscape:connector-curvature="0" id="path6142" d="m 47.934062,133.36675 c 0.0896,-0.1681 0.19844,-0.47128 0.23289,-0.71381 l 0.41204,0.32935 c -0.22738,0.0882 -0.50023,0.26046 -0.64493,0.38446" style="fill:#000000;fill-opacity:1;fill-rule:nonzero;stroke:none;stroke-width:0.35277775"/>
      <path inkscape:connector-curvature="0" id="path6144" d="m 56.356632,124.51009 -7.41384,-5.56038" style="fill:none;stroke:#000000;stroke-width:0.07029097;stroke-linecap:butt;stroke-linejoin:miter;stroke-miterlimit:10;stroke-opacity:1"/>
      <path inkscape:connector-curvature="0" id="path6146" d="m 48.435672,118.56938 c 0.17088,0.0841 0.47818,0.18327 0.72071,0.21085 l -0.31557,0.42168 c -0.0951,-0.22461 -0.2756,-0.49195 -0.40514,-0.63253" style="fill:#000000;fill-opacity:1;fill-rule:nonzero;stroke:none;stroke-width:0.35277775"/>
      <path inkscape:connector-curvature="0" id="path6148" d="m 55.875702,125.53536 -6.34449,-1.58612" style="fill:none;stroke:#000000;stroke-width:0.07029097;stroke-linecap:butt;stroke-linejoin:miter;stroke-miterlimit:10;stroke-opacity:1"/>
      <path inkscape:connector-curvature="0" id="path6150" d="m 48.916612,123.7949 c 0.19017,0.0109 0.51262,-0.0166 0.74689,-0.0854 l -0.12816,0.51266 c -0.17501,-0.17089 -0.4451,-0.34728 -0.61873,-0.42722" style="fill:#000000;fill-opacity:1;fill-rule:nonzero;stroke:none;stroke-width:0.35277775"/>
      <path inkscape:connector-curvature="0" id="path6152" d="m 55.875702,126.9203 -6.34449,1.58612" style="fill:none;stroke:#000000;stroke-width:0.07029097;stroke-linecap:butt;stroke-linejoin:miter;stroke-miterlimit:10;stroke-opacity:1"/>
      <path inkscape:connector-curvature="0" id="path6154" d="m 48.916612,128.65939 c 0.17363,-0.0786 0.44372,-0.25633 0.61873,-0.42722 l 0.12816,0.51266 c -0.23427,-0.0675 -0.55672,-0.0965 -0.74689,-0.0854" style="fill:#000000;fill-opacity:1;fill-rule:nonzero;stroke:none;stroke-width:0.35277775"/>
      <path inkscape:connector-curvature="0" id="path6156" d="m 56.356632,127.94417 -7.41384,5.56175" style="fill:none;stroke:#000000;stroke-width:0.07029097;stroke-linecap:butt;stroke-linejoin:miter;stroke-miterlimit:10;stroke-opacity:1"/>
      <path inkscape:connector-curvature="0" id="path6158" d="m 48.435672,133.88491 c 0.12954,-0.14058 0.31006,-0.40792 0.40514,-0.63253 l 0.31557,0.42167 c -0.24253,0.0275 -0.54983,0.12679 -0.72071,0.21086" style="fill:#000000;fill-opacity:1;fill-rule:nonzero;stroke:none;stroke-width:0.35277775"/>
      <path inkscape:connector-curvature="0" id="path6160" d="m 56.866512,130.25239 -8.53695,-10.67015" style="fill:none;stroke:#000000;stroke-width:0.07029097;stroke-linecap:butt;stroke-linejoin:miter;stroke-miterlimit:10;stroke-opacity:1"/>
      <path inkscape:connector-curvature="0" id="path6162" d="m 47.934062,119.08754 c 0.1447,0.124 0.41755,0.29626 0.64493,0.38446 l -0.41204,0.32935 c -0.0345,-0.24116 -0.14331,-0.54571 -0.23289,-0.71381" style="fill:#000000;fill-opacity:1;fill-rule:nonzero;stroke:none;stroke-width:0.35277775"/>
      <path inkscape:connector-curvature="0" id="path6164" d="m 56.356632,130.75951 -7.41384,-5.56038" style="fill:none;stroke:#000000;stroke-width:0.07029097;stroke-linecap:butt;stroke-linejoin:miter;stroke-miterlimit:10;stroke-opacity:1"/>
      <path inkscape:connector-curvature="0" id="path6166" d="m 48.435672,124.82018 c 0.17088,0.084 0.47818,0.18189 0.72071,0.21082 l -0.31557,0.42167 c -0.0951,-0.22461 -0.2756,-0.49195 -0.40514,-0.63249" style="fill:#000000;fill-opacity:1;fill-rule:nonzero;stroke:none;stroke-width:0.35277775"/>
      <path inkscape:connector-curvature="0" id="path6168" d="m 55.875702,131.78475 -6.34449,-1.58612" style="fill:none;stroke:#000000;stroke-width:0.07029097;stroke-linecap:butt;stroke-linejoin:miter;stroke-miterlimit:10;stroke-opacity:1"/>
      <path inkscape:connector-curvature="0" id="path6170" d="m 48.916612,130.04432 c 0.19017,0.0124 0.51262,-0.0166 0.74689,-0.0854 l -0.12816,0.51262 c -0.17501,-0.17088 -0.4451,-0.34727 -0.61873,-0.42718" style="fill:#000000;fill-opacity:1;fill-rule:nonzero;stroke:none;stroke-width:0.35277775"/>
      <path inkscape:connector-curvature="0" id="path6172" d="m 55.875702,133.16968 -6.34449,1.58613" style="fill:none;stroke:#000000;stroke-width:0.07029097;stroke-linecap:butt;stroke-linejoin:miter;stroke-miterlimit:10;stroke-opacity:1"/>
      <path inkscape:connector-curvature="0" id="path6174" d="m 48.916612,134.91015 c 0.17363,-0.0799 0.44372,-0.25629 0.61873,-0.42718 l 0.12816,0.51262 c -0.23427,-0.0689 -0.55672,-0.0965 -0.74689,-0.0854" style="fill:#000000;fill-opacity:1;fill-rule:nonzero;stroke:none;stroke-width:0.35277775"/>
    </g>
    <path style="fill:none;fill-rule:evenodd;stroke:#eb801a;stroke-width:1;stroke-linecap:butt;stroke-linejoin:miter;stroke-miterlimit:4;stroke-dasharray:none;stroke-opacity:1;marker-end:url(#marker9824)" d="M 60.072243,66.471939 154.67221,15.783817" id="path9820" inkscape:connector-curvature="0" sodipodi:nodetypes="cc"/>
    <path id="path10740" title="sin(x)" d="m 28.374596,63.998537 c 0,-1.364829 0.08707,-2.25369 0.339217,-3.182464 0.252134,-0.928789 0.717193,-1.655408 1.413715,-2.162258 0.696525,-0.506852 1.618695,-0.799455 2.589078,-1.046284 0.970382,-0.246832 1.974728,-0.46141 2.80033,-0.845704 0.825587,-0.384307 1.462686,-0.947582 1.856054,-1.742271 0.393341,-0.794713 0.546534,-1.817441 0.611852,-2.92361 0.06531,-1.106173 0.0564,-2.282811 0.195098,-3.319302 0.138703,-1.03649 0.436397,-1.922015 0.98343,-2.570805 0.547028,-0.648793 1.342191,-1.061987 2.262517,-1.356343 0.920314,-0.294369 1.953076,-0.481969 2.873389,-0.776339 0.920313,-0.294369 1.715488,-0.707552 2.262516,-1.356341 0.547028,-0.648794 0.844705,-1.534336 0.98343,-2.570803 0.138702,-1.036491 0.129788,-2.213133 0.195099,-3.319307 0.06531,-1.106167 0.218479,-2.128916 0.611841,-2.923612 0.393372,-0.794683 1.030396,-1.35803 1.856054,-1.742271 0.82559,-0.384306 1.82995,-0.598872 2.800327,-0.845705 0.970381,-0.246831 1.892564,-0.539424 2.589075,-1.046284 0.696526,-0.506855 1.161552,-1.233502 1.413717,-2.162259 0.252136,-0.92879 0.299291,-2.052196 0.339217,-3.182465" style="opacity:1;fill:none;fill-opacity:0.50196078;stroke:#eb801a;stroke-width:1;stroke-linecap:square;stroke-linejoin:round;stroke-miterlimit:4;stroke-dasharray:none;stroke-dashoffset:0;stroke-opacity:1;marker-start:url(#marker11115)" inkscape:connector-curvature="0" sodipodi:nodetypes="ccscccccccsccscccccc"/>
    <path inkscape:connector-curvature="0" style="opacity:1;fill:none;fill-opacity:0.50196078;stroke:#eb801a;stroke-width:1;stroke-linecap:square;stroke-linejoin:round;stroke-miterlimit:4;stroke-dasharray:none;stroke-dashoffset:0;stroke-opacity:1;marker-start:url(#marker11131)" d="m 13.211763,63.625409 c 0,-1.776817 0.714145,-2.832748 1.257255,-3.916765 0.543104,-1.084041 1.276091,-1.828846 2.215495,-2.204889 0.939408,-0.376043 2.080045,-0.392584 3.26368,-0.332316 1.183633,0.06027 2.397554,0.174645 3.452072,0.0043 1.054503,-0.170417 1.940917,-0.641137 2.60997,-1.500164 0.669029,-0.859067 1.123893,-2.100734 1.500394,-3.482413 0.376494,-1.381686 0.686794,-2.881612 1.128733,-4.146376 0.441946,-1.264757 1.025674,-2.276206 1.831767,-2.890417 0.806087,-0.614216 1.833459,-0.833105 2.972452,-0.852587 1.138983,-0.01948 2.378245,0.140155 3.517228,0.120638 1.138982,-0.01951 2.166365,-0.238373 2.972451,-0.852585 0.806086,-0.614217 1.389801,-1.625692 1.831765,-2.890415 0.441943,-1.264761 0.752243,-2.764693 1.128736,-4.146382 0.37649,-1.381677 0.831334,-2.623381 1.500382,-3.482419 0.669056,-0.859018 1.555401,-1.329855 2.60997,-1.500162 1.054508,-0.170414 2.268442,-0.05602 3.45207,0.0043 1.183632,0.06027 2.324281,0.04374 3.263676,-0.332317 0.93941,-0.376044 1.672366,-1.1209 2.215496,-2.204889 0.543103,-1.084042 0.903403,-2.494645 1.257256,-3.916768" title="sin(x)" id="path10925" sodipodi:nodetypes="cccccccccccccscccccc"/>
    <path inkscape:connector-curvature="0" style="opacity:1;fill:none;fill-opacity:0.50196078;stroke:#eb801a;stroke-width:1;stroke-linecap:square;stroke-linejoin:round;stroke-miterlimit:4;stroke-dasharray:none;stroke-dashoffset:0;stroke-opacity:1;marker-start:url(#marker11171)" d="m 41.124788,64.319351 c 0,-1.156587 -0.07159,-1.873135 -0.04512,-2.698943 0.02645,-0.825821 -0.02816,-1.538587 0.44545,-2.128464 0.473606,-0.58988 1.174265,-1.05995 1.923434,-1.504429 0.749169,-0.44448 1.532514,-0.870922 2.136002,-1.392268 0.603474,-0.521353 1.017285,-1.142781 1.185849,-1.893613 0.168536,-0.750844 0.09543,-1.629191 -0.0661,-2.554199 -0.161537,-0.92501 -0.397756,-1.88942 -0.485448,-2.775464 -0.08769,-0.886042 -0.01539,-1.687667 0.307791,-2.356914 0.32318,-0.669251 0.89604,-1.206756 1.594842,-1.67781 0.698789,-0.471062 1.510727,-0.882418 2.209516,-1.35348 0.698788,-0.471062 1.27166,-1.008561 1.59484,-1.677806 0.32318,-0.66925 0.395458,-1.470884 0.307792,-2.356916 -0.08769,-0.886044 -0.323911,-1.850456 -0.485449,-2.775465 -0.161536,-0.925005 -0.234665,-1.803363 -0.06611,-2.5542 0.168569,-0.750829 0.582304,-1.372296 1.185849,-1.893613 0.603475,-0.521351 1.386834,-0.947789 2.135999,-1.392267 0.749169,-0.444479 1.449839,-0.914546 1.923434,-1.504431 0.473606,-0.589879 0.714275,-1.302662 0.740756,-2.128463 0.02645,-0.825819 -0.153354,-1.760464 -0.340431,-2.698945" title="sin(x)" id="path10927" sodipodi:nodetypes="cccsccccccsccccccccc"/>
    <text id="text11297" y="50.889175" x="3.5138674" style="font-style:normal;font-variant:normal;font-weight:normal;font-stretch:normal;font-size:4.23333311px;line-height:75%;font-family:serif;-inkscape-font-specification:serif;text-align:center;letter-spacing:0px;word-spacing:0px;text-anchor:middle;fill:#000000;fill-opacity:1;stroke:none;stroke-width:0.26458332px;stroke-linecap:butt;stroke-linejoin:miter;stroke-opacity:1" xml:space="preserve" transform="rotate(-40)"><tspan style="font-style:normal;font-variant:normal;font-weight:300;font-stretch:normal;font-size:7.05555534px;font-family:'Fira Sans';-inkscape-font-specification:'Fira Sans, Light';font-variant-ligatures:normal;font-variant-caps:normal;font-variant-numeric:normal;font-feature-settings:normal;text-align:center;writing-mode:lr-tb;text-anchor:middle;stroke-width:0.26458332px" y="50.889175" x="3.5138679" id="tspan11295" sodipodi:role="line">samples</tspan></text>
  </g>
</svg>