<?xml version="1.0" encoding="UTF-8" standalone="no"?>
<!-- Created with Inkscape (http://www.inkscape.org/) -->

<svg
   xmlns:dc="http://purl.org/dc/elements/1.1/"
   xmlns:cc="http://creativecommons.org/ns#"
   xmlns:rdf="http://www.w3.org/1999/02/22-rdf-syntax-ns#"
   xmlns:svg="http://www.w3.org/2000/svg"
   xmlns="http://www.w3.org/2000/svg"
   xmlns:sodipodi="http://sodipodi.sourceforge.net/DTD/sodipodi-0.dtd"
   xmlns:inkscape="http://www.inkscape.org/namespaces/inkscape"
   width="102.79762mm"
   height="102.79762mm"
   viewBox="0 0 102.79762 102.79762"
   version="1.1"
   id="svg8"
   sodipodi:docname="circle.svg"
   inkscape:version="0.92.2 2405546, 2018-03-11">
  <defs
     id="defs2" />
  <sodipodi:namedview
     id="base"
     pagecolor="#ffffff"
     bordercolor="#666666"
     borderopacity="1.0"
     inkscape:pageopacity="0.0"
     inkscape:pageshadow="2"
     inkscape:zoom="0.98994949"
     inkscape:cx="-77.111457"
     inkscape:cy="199.72296"
     inkscape:document-units="mm"
     inkscape:current-layer="layer1"
     showgrid="false"
     fit-margin-top="0"
     fit-margin-left="0"
     fit-margin-right="0"
     fit-margin-bottom="0" />
  <metadata
     id="metadata5">
    <rdf:RDF>
      <cc:Work
         rdf:about="">
        <dc:format>image/svg+xml</dc:format>
        <dc:type
           rdf:resource="http://purl.org/dc/dcmitype/StillImage" />
        <dc:title />
      </cc:Work>
    </rdf:RDF>
  </metadata>
  <g
     inkscape:label="Layer 1"
     inkscape:groupmode="layer"
     id="layer1"
     transform="translate(-48.386902,-67.952377)">
    <rect
       style="opacity:1;fill:none;fill-opacity:0.00392157;stroke:#000000;stroke-width:1.5;stroke-linecap:square;stroke-linejoin:round;stroke-miterlimit:10;stroke-dasharray:1.50000002, 3.00000004;stroke-dashoffset:0;stroke-opacity:0.50196078"
       id="rect10"
       width="101.29762"
       height="101.29762"
       x="49.136902"
       y="68.702377"
       ry="6.8346901" />
    <path
       sodipodi:type="spiral"
       style="fill:none;fill-rule:evenodd;stroke:#000000;stroke-width:2;stroke-linecap:butt;stroke-linejoin:miter;stroke-miterlimit:4;stroke-dasharray:none;stroke-opacity:1"
       id="path82"
       sodipodi:cx="98.869873"
       sodipodi:cy="118.55634"
       sodipodi:expansion="1"
       sodipodi:revolution="5.02"
       sodipodi:radius="18.332819"
       sodipodi:argument="-4.843977"
       sodipodi:t0="0"
       d="m 98.869873,118.55634 c 0.07207,0.54456 -0.698498,0.36582 -0.905096,0.1198 -0.559867,-0.66673 -0.0062,-1.61396 0.665512,-1.92999 1.201521,-0.5653 2.542751,0.28832 2.954871,1.45082 0.60481,1.70601 -0.5826,3.48737 -2.236119,3.97976 -2.20388,0.65627 -4.438048,-0.87625 -5.004648,-3.02143 -0.713009,-2.69948 1.169457,-5.3917 3.806728,-6.02953 3.194089,-0.7725 6.347069,1.46239 7.054429,4.59203 0.83359,3.68817 -1.75516,7.30349 -5.377341,8.07931 -4.181954,0.89572 -8.260626,-2.0478 -9.1042,-6.16264 -0.958523,-4.67555 2.340359,-9.21826 6.947944,-10.12909 5.169017,-1.02181 10.176257,2.63287 11.153977,7.73325 1.08546,5.66239 -2.92533,11.13452 -8.51855,12.17887 -6.155711,1.14936 -12.093003,-3.21776 -13.203755,-9.30386 -1.213481,-6.64898 3.510163,-13.05164 10.08916,-14.22864 7.142205,-1.27776 14.010415,3.80255 15.253525,10.87446 1.34217,7.63541 -4.09491,14.9693 -11.65977,16.27842 -8.128583,1.40667 -15.928262,-4.38728 -17.303299,-12.44507 -1.471274,-8.62175 4.679621,-16.88731 13.230376,-18.3282 9.114893,-1.53594 17.846413,4.97196 19.353083,14.01569 1.60067,9.60802 -5.26429,18.80557 -14.80099,20.37796 -0.75657,0.12475 -1.520985,0.20174 -2.287226,0.23058" />
    <path
       sodipodi:type="star"
       style="opacity:1;fill:#000000;fill-opacity:1;stroke:none;stroke-width:1.5;stroke-linecap:square;stroke-linejoin:round;stroke-miterlimit:10;stroke-dasharray:1.50000004, 3.00000007;stroke-dashoffset:0;stroke-opacity:0.50196078"
       id="path12"
       sodipodi:sides="3"
       sodipodi:cx="25.390606"
       sodipodi:cy="33.574818"
       sodipodi:r1="6.4367027"
       sodipodi:r2="3.2183511"
       sodipodi:arg1="0"
       sodipodi:arg2="1.0471976"
       inkscape:flatsided="true"
       inkscape:rounded="0"
       inkscape:randomized="0.05"
       d="m 31.741478,33.527514 -9.318478,5.770411 0.003,-11.291577 z"
       transform="matrix(-1,0,0,1,121.30591,103.16001)"
       inkscape:transform-center-x="1.8536322"
       inkscape:transform-center-y="-0.022425581" />
  </g>
</svg>
