<?xml version="1.0" encoding="UTF-8" standalone="no"?>
<!-- Created with Inkscape (http://www.inkscape.org/) -->

<svg
   xmlns:dc="http://purl.org/dc/elements/1.1/"
   xmlns:cc="http://creativecommons.org/ns#"
   xmlns:rdf="http://www.w3.org/1999/02/22-rdf-syntax-ns#"
   xmlns:svg="http://www.w3.org/2000/svg"
   xmlns="http://www.w3.org/2000/svg"
   xmlns:sodipodi="http://sodipodi.sourceforge.net/DTD/sodipodi-0.dtd"
   xmlns:inkscape="http://www.inkscape.org/namespaces/inkscape"
   width="200mm"
   height="150mm"
   viewBox="0 0 200 150"
   version="1.1"
   id="svg22199"
   inkscape:version="0.92.2 2405546, 2018-03-11"
   sodipodi:docname="DC.svg">
  <defs
     id="defs22193" />
  <sodipodi:namedview
     id="base"
     pagecolor="#ffffff"
     bordercolor="#666666"
     borderopacity="1.0"
     inkscape:pageopacity="0.0"
     inkscape:pageshadow="2"
     inkscape:zoom="1"
     inkscape:cx="366.00796"
     inkscape:cy="214.08406"
     inkscape:document-units="mm"
     inkscape:current-layer="layer1"
     showgrid="false"
     fit-margin-top="0"
     fit-margin-left="0"
     fit-margin-right="0"
     fit-margin-bottom="0" />
  <metadata
     id="metadata22196">
    <rdf:RDF>
      <cc:Work
         rdf:about="">
        <dc:format>image/svg+xml</dc:format>
        <dc:type
           rdf:resource="http://purl.org/dc/dcmitype/StillImage" />
        <dc:title />
      </cc:Work>
    </rdf:RDF>
  </metadata>
  <g
     inkscape:label="Layer 1"
     inkscape:groupmode="layer"
     id="layer1"
     transform="translate(-10.292811,65.596402)">
    <g
       id="g22506"
       transform="translate(5.215413,-28.110878)">
      <path
         style="fill:#ffffff;fill-opacity:1;fill-rule:nonzero;stroke:#000000;stroke-width:1.50001097;stroke-linecap:butt;stroke-linejoin:miter;stroke-miterlimit:10;stroke-opacity:1"
         d="m 32.130933,35.710635 c 0,-5.823585 -4.721159,-10.544739 -10.544746,-10.544739 -5.822213,0 -10.543371,4.721154 -10.543371,10.544739 0,5.822209 4.721158,10.543364 10.543371,10.543364 5.823587,0 10.544746,-4.721155 10.544746,-10.543364 z m 0,0"
         id="path6016"
         inkscape:connector-curvature="0" />
      <path
         style="fill:#ffffff;fill-opacity:1;fill-rule:nonzero;stroke:#000000;stroke-width:1.50001097;stroke-linecap:butt;stroke-linejoin:miter;stroke-miterlimit:10;stroke-opacity:1"
         d="m 112.13157,35.710635 c 0,-5.823585 -4.71978,-10.544739 -10.54338,-10.544739 -5.823587,0 -10.544743,4.721154 -10.544743,10.544739 0,5.822209 4.721156,10.543364 10.544743,10.543364 5.8236,0 10.54338,-4.721155 10.54338,-10.543364 z m 0,0"
         id="path6022"
         inkscape:connector-curvature="0" />
      <path
         style="fill:#dedede;fill-opacity:1;fill-rule:nonzero;stroke:#000000;stroke-width:1.50001097;stroke-linecap:butt;stroke-linejoin:miter;stroke-miterlimit:10;stroke-opacity:1"
         d="m 192.13222,35.710635 c 0,-5.823585 -4.71978,-10.544739 -10.54337,-10.544739 -5.82359,0 -10.54337,4.721154 -10.54337,10.544739 0,5.822209 4.71978,10.543364 10.54337,10.543364 5.82359,0 10.54337,-4.721155 10.54337,-10.543364 z m 0,0"
         id="path6032"
         inkscape:connector-curvature="0" />
      <path
         style="fill:none;stroke:#000000;stroke-width:1.50001097;stroke-linecap:butt;stroke-linejoin:miter;stroke-miterlimit:10;stroke-opacity:1"
         d="M 197.70638,18.187493 H 85.470658 c -0.775835,0 -1.405597,0.629779 -1.405597,1.405608 v 35.842786 c 0,0.775827 0.629762,1.405572 1.405597,1.405572 H 197.70638 c 0.77584,0 1.4056,-0.629745 1.4056,-1.405572 V 19.593101 c 0,-0.775829 -0.62976,-1.405608 -1.4056,-1.405608 z m 0,0"
         id="path6042"
         inkscape:connector-curvature="0" />
      <path
         style="fill:none;stroke:#000000;stroke-width:1.50001097;stroke-linecap:butt;stroke-linejoin:miter;stroke-miterlimit:10;stroke-opacity:1"
         d="M 34.38127,35.710635 H 86.597897"
         id="path6048"
         inkscape:connector-curvature="0" />
      <path
         style="fill:#000000;fill-opacity:1;fill-rule:nonzero;stroke:#000000;stroke-width:1.50001097;stroke-linecap:butt;stroke-linejoin:miter;stroke-miterlimit:10;stroke-opacity:1"
         d="m 81.803699,33.558126 5.069801,2.152509 -5.069801,2.151132 z m 0,0"
         id="path6050"
         inkscape:connector-curvature="0" />
      <path
         style="fill:none;stroke:#000000;stroke-width:1.50001097;stroke-linecap:butt;stroke-linejoin:miter;stroke-miterlimit:10;stroke-opacity:1"
         d="m 114.38191,35.710635 h 52.21802"
         id="path6052"
         inkscape:connector-curvature="0" />
      <path
         style="fill:#000000;fill-opacity:1;fill-rule:nonzero;stroke:#000000;stroke-width:1.50001097;stroke-linecap:butt;stroke-linejoin:miter;stroke-miterlimit:10;stroke-opacity:1"
         d="m 161.80573,33.558126 5.0698,2.152509 -5.0698,2.151132 z m 0,0"
         id="path6054"
         inkscape:connector-curvature="0" />
      <text
         id="text22405"
         y="38.730606"
         x="21.183661"
         style="font-style:normal;font-variant:normal;font-weight:300;font-stretch:normal;font-size:8.81944466px;line-height:75%;font-family:'Fira Sans';-inkscape-font-specification:'Fira Sans, Light';font-variant-ligatures:normal;font-variant-caps:normal;font-variant-numeric:normal;font-feature-settings:normal;text-align:center;letter-spacing:0px;word-spacing:0px;writing-mode:lr-tb;text-anchor:middle;fill:#000000;fill-opacity:1;stroke:none;stroke-width:0.26458332px;stroke-linecap:butt;stroke-linejoin:miter;stroke-opacity:1"
         xml:space="preserve"><tspan
           style="font-style:normal;font-variant:normal;font-weight:300;font-stretch:normal;font-size:8.81944466px;font-family:'Fira Sans';-inkscape-font-specification:'Fira Sans, Light';font-variant-ligatures:normal;font-variant-caps:normal;font-variant-numeric:normal;font-feature-settings:normal;text-align:center;writing-mode:lr-tb;text-anchor:middle;stroke-width:0.26458332px"
           y="38.730606"
           x="21.183661"
           id="tspan22403"
           sodipodi:role="line">DSL</tspan></text>
      <text
         xml:space="preserve"
         style="font-style:normal;font-variant:normal;font-weight:300;font-stretch:normal;font-size:8.81944466px;line-height:75%;font-family:'Fira Sans';-inkscape-font-specification:'Fira Sans, Light';font-variant-ligatures:normal;font-variant-caps:normal;font-variant-numeric:normal;font-feature-settings:normal;text-align:center;letter-spacing:0px;word-spacing:0px;writing-mode:lr-tb;text-anchor:middle;fill:#000000;fill-opacity:1;stroke:none;stroke-width:0.26458332px;stroke-linecap:butt;stroke-linejoin:miter;stroke-opacity:1"
         x="101.13731"
         y="37.826614"
         id="text22409"><tspan
           sodipodi:role="line"
           id="tspan22407"
           x="101.13731"
           y="37.826614"
           style="font-style:normal;font-variant:normal;font-weight:300;font-stretch:normal;font-size:8.81944466px;font-family:'Fira Sans';-inkscape-font-specification:'Fira Sans, Light';font-variant-ligatures:normal;font-variant-caps:normal;font-variant-numeric:normal;font-feature-settings:normal;text-align:center;writing-mode:lr-tb;text-anchor:middle;stroke-width:0.26458332px">Prog</tspan></text>
      <text
         id="text22413"
         y="38.937862"
         x="181.55922"
         style="font-style:normal;font-variant:normal;font-weight:300;font-stretch:normal;font-size:8.81944466px;line-height:75%;font-family:'Fira Sans';-inkscape-font-specification:'Fira Sans, Light';font-variant-ligatures:normal;font-variant-caps:normal;font-variant-numeric:normal;font-feature-settings:normal;text-align:center;letter-spacing:0px;word-spacing:0px;writing-mode:lr-tb;text-anchor:middle;fill:#000000;fill-opacity:1;stroke:none;stroke-width:0.26458332px;stroke-linecap:butt;stroke-linejoin:miter;stroke-opacity:1"
         xml:space="preserve"><tspan
           style="font-style:normal;font-variant:normal;font-weight:300;font-stretch:normal;font-size:8.81944466px;font-family:'Fira Sans';-inkscape-font-specification:'Fira Sans, Light';font-variant-ligatures:normal;font-variant-caps:normal;font-variant-numeric:normal;font-feature-settings:normal;text-align:center;writing-mode:lr-tb;text-anchor:middle;stroke-width:0.26458332px"
           y="38.937862"
           x="181.55922"
           id="tspan22411"
           sodipodi:role="line">Task</tspan></text>
    </g>
    <path
       inkscape:connector-curvature="0"
       id="path6044"
       d="m 188.40299,19.584895 c 0,31.197407 -80.00063,31.197407 -80.00063,2.19523"
       style="fill:none;stroke:#ff0000;stroke-width:1.50001097;stroke-linecap:butt;stroke-linejoin:miter;stroke-miterlimit:10;stroke-opacity:1" />
    <path
       inkscape:connector-curvature="0"
       id="path6046"
       d="m 106.24986,26.574305 2.1525,-5.069805 2.15112,5.069805 z m 0,0"
       style="fill:#ff0000;fill-opacity:1;fill-rule:nonzero;stroke:#ff0000;stroke-width:1.50001097;stroke-linecap:butt;stroke-linejoin:miter;stroke-miterlimit:10;stroke-opacity:1" />
    <path
       inkscape:connector-curvature="0"
       id="path6056"
       d="m 132.77434,30.483823 v 25.000336 h 31.24977 V 30.483823 Z m 0,0"
       style="fill:#ffffff;fill-opacity:0.50196081;fill-rule:nonzero;stroke:none;stroke-width:0.35277775" />
    <path
       inkscape:connector-curvature="0"
       id="path6058"
       d="m 138.71231,33.609187 c 0,-1.554409 -1.25953,-2.813932 -2.81258,-2.813932 -1.55442,0 -2.81395,1.259523 -2.81395,2.813932 0,1.554445 1.25953,2.813967 2.81395,2.813967 1.55305,0 2.81258,-1.259522 2.81258,-2.813967 z m 0,0"
       style="fill:#7f7fff;fill-opacity:1;fill-rule:nonzero;stroke:none;stroke-width:0.35277775" />
    <path
       inkscape:connector-curvature="0"
       id="path6060"
       d="m 158.08614,39.85861 c 0,-1.553069 1.25953,-2.812591 2.81258,-2.812591 1.55442,0 2.81395,1.259522 2.81395,2.812591 0,1.55441 -1.25953,2.813932 -2.81395,2.813932 -1.55305,0 -2.81258,-1.259522 -2.81258,-2.813932 z m 0,0"
       style="fill:#7f7fff;fill-opacity:1;fill-rule:nonzero;stroke:none;stroke-width:0.35277775" />
    <path
       inkscape:connector-curvature="0"
       id="path6062"
       d="m 158.08614,46.109374 c 0,-1.55441 1.25953,-2.813932 2.81258,-2.813932 1.55442,0 2.81395,1.259522 2.81395,2.813932 0,1.554443 -1.25953,2.813965 -2.81395,2.813965 -1.55305,0 -2.81258,-1.259522 -2.81258,-2.813965 z m 0,0"
       style="fill:#7f7fff;fill-opacity:1;fill-rule:nonzero;stroke:none;stroke-width:0.35277775" />
    <path
       inkscape:connector-curvature="0"
       id="path6064"
       d="m 158.08614,52.358795 c 0,-1.553067 1.25953,-2.81259 2.81258,-2.81259 1.55442,0 2.81395,1.259523 2.81395,2.81259 0,1.554411 -1.25953,2.813934 -2.81395,2.813934 -1.55305,0 -2.81258,-1.259523 -2.81258,-2.813934 z m 0,0"
       style="fill:#7f7fff;fill-opacity:1;fill-rule:nonzero;stroke:none;stroke-width:0.35277775" />
    <path
       inkscape:connector-curvature="0"
       id="path6066"
       d="m 145.58596,36.734587 c 0,-1.55441 1.25953,-2.813968 2.81258,-2.813968 1.55442,0 2.81395,1.259558 2.81395,2.813968 0,1.553033 -1.25953,2.812591 -2.81395,2.812591 -1.55305,0 -2.81258,-1.259558 -2.81258,-2.812591 z m 0,0"
       style="fill:#7f7fff;fill-opacity:1;fill-rule:nonzero;stroke:none;stroke-width:0.35277775" />
    <path
       inkscape:connector-curvature="0"
       id="path6068"
       d="m 145.58596,42.983974 c 0,-1.554409 1.25953,-2.813932 2.81258,-2.813932 1.55442,0 2.81395,1.259523 2.81395,2.813932 0,1.554445 -1.25953,2.813967 -2.81395,2.813967 -1.55305,0 -2.81258,-1.259522 -2.81258,-2.813967 z m 0,0"
       style="fill:#7f7fff;fill-opacity:1;fill-rule:nonzero;stroke:none;stroke-width:0.35277775" />
    <path
       inkscape:connector-curvature="0"
       id="path6070"
       d="m 145.58596,49.234772 c 0,-1.554445 1.25953,-2.813968 2.81258,-2.813968 1.55442,0 2.81395,1.259523 2.81395,2.813968 0,1.553033 -1.25953,2.812592 -2.81395,2.812592 -1.55305,0 -2.81258,-1.259559 -2.81258,-2.812592 z m 0,0"
       style="fill:#7f7fff;fill-opacity:1;fill-rule:nonzero;stroke:none;stroke-width:0.35277775" />
    <path
       inkscape:connector-curvature="0"
       id="path6072"
       d="m 163.71267,33.609187 c 0,-1.554409 -1.25952,-2.813932 -2.81257,-2.813932 -1.55443,0 -2.81395,1.259523 -2.81395,2.813932 0,1.554445 1.25952,2.813967 2.81395,2.813967 1.55305,0 2.81257,-1.259522 2.81257,-2.813967 z m 0,0"
       style="fill:#7f7fff;fill-opacity:1;fill-rule:nonzero;stroke:none;stroke-width:0.35277775" />
    <path
       inkscape:connector-curvature="0"
       id="path6074"
       d="m 133.08578,39.85861 c 0,-1.553069 1.25952,-2.812591 2.81257,-2.812591 1.55443,0 2.81395,1.259522 2.81395,2.812591 0,1.55441 -1.25952,2.813932 -2.81395,2.813932 -1.55305,0 -2.81257,-1.259522 -2.81257,-2.813932 z m 0,0"
       style="fill:#7f7fff;fill-opacity:1;fill-rule:nonzero;stroke:none;stroke-width:0.35277775" />
    <path
       inkscape:connector-curvature="0"
       id="path6076"
       d="m 133.08578,46.109374 c 0,-1.55441 1.25952,-2.813932 2.81257,-2.813932 1.55443,0 2.81395,1.259522 2.81395,2.813932 0,1.554443 -1.25952,2.813965 -2.81395,2.813965 -1.55305,0 -2.81257,-1.259522 -2.81257,-2.813965 z m 0,0"
       style="fill:#7f7fff;fill-opacity:1;fill-rule:nonzero;stroke:none;stroke-width:0.35277775" />
    <path
       inkscape:connector-curvature="0"
       id="path6078"
       d="m 133.08578,52.358795 c 0,-1.553067 1.25952,-2.81259 2.81257,-2.81259 1.55443,0 2.81395,1.259523 2.81395,2.81259 0,1.554411 -1.25952,2.813934 -2.81395,2.813934 -1.55305,0 -2.81257,-1.259523 -2.81257,-2.813934 z m 0,0"
       style="fill:#7f7fff;fill-opacity:1;fill-rule:nonzero;stroke:none;stroke-width:0.35277775" />
    <path
       inkscape:connector-curvature="0"
       id="path6080"
       d="m 158.12886,34.30236 -6.34448,1.586124"
       style="fill:none;stroke:#000000;stroke-width:0.07029097;stroke-linecap:butt;stroke-linejoin:miter;stroke-miterlimit:10;stroke-opacity:1" />
    <path
       inkscape:connector-curvature="0"
       id="path6082"
       d="m 151.16977,36.041449 c 0.17363,-0.07994 0.44373,-0.256329 0.61874,-0.427214 l 0.12816,0.512621 c -0.23427,-0.06752 -0.55673,-0.09645 -0.7469,-0.08541"
       style="fill:#000000;fill-opacity:1;fill-rule:nonzero;stroke:none;stroke-width:0.35277775" />
    <path
       inkscape:connector-curvature="0"
       id="path6084"
       d="m 158.60979,35.326227 -7.41522,5.560378"
       style="fill:none;stroke:#000000;stroke-width:0.07029097;stroke-linecap:butt;stroke-linejoin:miter;stroke-miterlimit:10;stroke-opacity:1" />
    <path
       inkscape:connector-curvature="0"
       id="path6086"
       d="m 150.68883,41.26697 c 0.12954,-0.140583 0.31006,-0.407918 0.40515,-0.632531 l 0.31557,0.421675 c -0.24254,0.02752 -0.54984,0.126788 -0.72072,0.210856"
       style="fill:#000000;fill-opacity:1;fill-rule:nonzero;stroke:none;stroke-width:0.35277775" />
    <path
       inkscape:connector-curvature="0"
       id="path6088"
       d="m 159.11967,35.833345 -8.53694,10.671528"
       style="fill:none;stroke:#000000;stroke-width:0.07029097;stroke-linecap:butt;stroke-linejoin:miter;stroke-miterlimit:10;stroke-opacity:1" />
    <path
       inkscape:connector-curvature="0"
       id="path6090"
       d="m 150.18723,46.998231 c 0.0896,-0.168132 0.19843,-0.471311 0.23289,-0.71247 l 0.41203,0.329353 c -0.22738,0.08682 -0.50023,0.25908 -0.64492,0.383117"
       style="fill:#000000;fill-opacity:1;fill-rule:nonzero;stroke:none;stroke-width:0.35277775" />
    <path
       inkscape:connector-curvature="0"
       id="path6092"
       d="m 158.12886,39.166813 -6.34448,-1.586124"
       style="fill:none;stroke:#000000;stroke-width:0.07029097;stroke-linecap:butt;stroke-linejoin:miter;stroke-miterlimit:10;stroke-opacity:1" />
    <path
       inkscape:connector-curvature="0"
       id="path6094"
       d="m 151.16977,37.426348 c 0.19017,0.01094 0.51263,-0.01658 0.7469,-0.08541 l -0.12816,0.512621 c -0.17501,-0.170885 -0.44511,-0.347274 -0.61874,-0.427214"
       style="fill:#000000;fill-opacity:1;fill-rule:nonzero;stroke:none;stroke-width:0.35277775" />
    <path
       inkscape:connector-curvature="0"
       id="path6096"
       d="m 158.12886,40.551748 -6.34448,1.586124"
       style="fill:none;stroke:#000000;stroke-width:0.07029097;stroke-linecap:butt;stroke-linejoin:miter;stroke-miterlimit:10;stroke-opacity:1" />
    <path
       inkscape:connector-curvature="0"
       id="path6098"
       d="m 151.16977,42.292212 c 0.17363,-0.07994 0.57189,0.256293 0.7469,0.08544 l -0.16536,-0.529166 c -0.23427,-0.0689 -0.39137,0.431336 -0.58154,0.443726"
       style="fill:#000000;fill-opacity:1;fill-rule:nonzero;stroke:none;stroke-width:0.35277775"
       sodipodi:nodetypes="cccc" />
    <path
       inkscape:connector-curvature="0"
       id="path6100"
       d="m 158.60979,41.577026 -7.41522,5.560376"
       style="fill:none;stroke:#000000;stroke-width:0.07029097;stroke-linecap:butt;stroke-linejoin:miter;stroke-miterlimit:10;stroke-opacity:1" />
    <path
       inkscape:connector-curvature="0"
       id="path6102"
       d="m 150.68883,47.516356 c 0.12954,-0.140546 0.31006,-0.407881 0.40515,-0.632531 l 0.31557,0.421677 c -0.24254,0.02893 -0.54984,0.126788 -0.72072,0.210854"
       style="fill:#000000;fill-opacity:1;fill-rule:nonzero;stroke:none;stroke-width:0.35277775" />
    <path
       inkscape:connector-curvature="0"
       id="path6104"
       d="M 158.60979,44.392333 151.19457,38.83058"
       style="fill:none;stroke:#000000;stroke-width:0.07029097;stroke-linecap:butt;stroke-linejoin:miter;stroke-miterlimit:10;stroke-opacity:1" />
    <path
       inkscape:connector-curvature="0"
       id="path6106"
       d="m 150.68883,38.451626 c 0.17088,0.08407 0.47818,0.183269 0.72072,0.21082 l -0.31557,0.421711 c -0.0951,-0.224649 -0.27561,-0.491984 -0.40515,-0.632531"
       style="fill:#000000;fill-opacity:1;fill-rule:nonzero;stroke:none;stroke-width:0.35277775" />
    <path
       inkscape:connector-curvature="0"
       id="path6108"
       d="m 158.12886,45.416236 -6.34448,-1.586124"
       style="fill:none;stroke:#000000;stroke-width:0.07029097;stroke-linecap:butt;stroke-linejoin:miter;stroke-miterlimit:10;stroke-opacity:1" />
    <path
       inkscape:connector-curvature="0"
       id="path6110"
       d="m 151.16977,43.677147 c 0.19017,0.01093 0.51263,-0.01799 0.7469,-0.08544 l -0.12816,0.512621 c -0.17501,-0.17085 -0.44511,-0.347239 -0.61874,-0.427179"
       style="fill:#000000;fill-opacity:1;fill-rule:nonzero;stroke:none;stroke-width:0.35277775" />
    <path
       inkscape:connector-curvature="0"
       id="path6112"
       d="m 158.12886,46.801135 -6.34448,1.5875"
       style="fill:none;stroke:#000000;stroke-width:0.07029097;stroke-linecap:butt;stroke-linejoin:miter;stroke-miterlimit:10;stroke-opacity:1" />
    <path
       inkscape:connector-curvature="0"
       id="path6114"
       d="m 151.16977,48.541635 c 0.17363,-0.07994 0.44373,-0.256328 0.61874,-0.427215 l 0.12816,0.512623 c -0.23427,-0.06752 -0.55673,-0.09645 -0.7469,-0.08541"
       style="fill:#000000;fill-opacity:1;fill-rule:nonzero;stroke:none;stroke-width:0.35277775" />
    <path
       inkscape:connector-curvature="0"
       id="path6116"
       d="M 159.11967,50.134639 150.58273,39.463111"
       style="fill:none;stroke:#000000;stroke-width:0.07029097;stroke-linecap:butt;stroke-linejoin:miter;stroke-miterlimit:10;stroke-opacity:1" />
    <path
       inkscape:connector-curvature="0"
       id="path6118"
       d="m 150.18723,38.969751 c 0.14469,0.124037 0.41754,0.296298 0.64492,0.384493 l -0.41203,0.329353 c -0.0345,-0.242535 -0.14332,-0.545712 -0.23289,-0.713846"
       style="fill:#000000;fill-opacity:1;fill-rule:nonzero;stroke:none;stroke-width:0.35277775" />
    <path
       inkscape:connector-curvature="0"
       id="path6120"
       d="m 158.60979,50.641755 -7.41522,-5.560411"
       style="fill:none;stroke:#000000;stroke-width:0.07029097;stroke-linecap:butt;stroke-linejoin:miter;stroke-miterlimit:10;stroke-opacity:1" />
    <path
       inkscape:connector-curvature="0"
       id="path6122"
       d="m 150.68883,44.701014 c 0.17088,0.08544 0.47818,0.183303 0.72072,0.212231 l -0.31557,0.421676 c -0.0951,-0.22599 -0.27561,-0.491949 -0.40515,-0.633907"
       style="fill:#000000;fill-opacity:1;fill-rule:nonzero;stroke:none;stroke-width:0.35277775" />
    <path
       inkscape:connector-curvature="0"
       id="path6124"
       d="m 158.12886,51.666999 -6.34448,-1.586124"
       style="fill:none;stroke:#000000;stroke-width:0.07029097;stroke-linecap:butt;stroke-linejoin:miter;stroke-miterlimit:10;stroke-opacity:1" />
    <path
       inkscape:connector-curvature="0"
       id="path6126"
       d="m 151.16977,49.926533 c 0.19017,0.01093 0.51263,-0.01659 0.7469,-0.08544 l -0.12816,0.512657 c -0.17501,-0.170887 -0.44511,-0.347274 -0.61874,-0.427215"
       style="fill:#000000;fill-opacity:1;fill-rule:nonzero;stroke:none;stroke-width:0.35277775" />
    <path
       inkscape:connector-curvature="0"
       id="path6128"
       d="m 145.62868,36.041413 -6.34449,-1.586088"
       style="fill:none;stroke:#000000;stroke-width:0.07029097;stroke-linecap:butt;stroke-linejoin:miter;stroke-miterlimit:10;stroke-opacity:1" />
    <path
       inkscape:connector-curvature="0"
       id="path6130"
       d="m 138.66959,34.300984 c 0.19017,0.01235 0.51262,-0.01658 0.74689,-0.08544 l -0.12816,0.512621 c -0.17501,-0.170886 -0.4451,-0.347275 -0.61873,-0.427179"
       style="fill:#000000;fill-opacity:1;fill-rule:nonzero;stroke:none;stroke-width:0.35277775" />
    <path
       inkscape:connector-curvature="0"
       id="path6132"
       d="m 145.62868,37.426348 -6.34449,1.586125"
       style="fill:none;stroke:#000000;stroke-width:0.07029097;stroke-linecap:butt;stroke-linejoin:miter;stroke-miterlimit:10;stroke-opacity:1" />
    <path
       inkscape:connector-curvature="0"
       id="path6134"
       d="m 138.66959,39.166813 c 0.17363,-0.0799 0.44372,-0.256293 0.61873,-0.427179 l 0.12816,0.512622 c -0.23427,-0.0689 -0.55672,-0.09645 -0.74689,-0.08544"
       style="fill:#000000;fill-opacity:1;fill-rule:nonzero;stroke:none;stroke-width:0.35277775" />
    <path
       inkscape:connector-curvature="0"
       id="path6136"
       d="m 146.10961,38.451626 -7.41384,5.560378"
       style="fill:none;stroke:#000000;stroke-width:0.07029097;stroke-linecap:butt;stroke-linejoin:miter;stroke-miterlimit:10;stroke-opacity:1" />
    <path
       inkscape:connector-curvature="0"
       id="path6138"
       d="m 138.18865,44.392333 c 0.12954,-0.140546 0.31006,-0.407881 0.40514,-0.633871 l 0.31557,0.423052 c -0.24253,0.02752 -0.54983,0.125377 -0.72071,0.210819"
       style="fill:#000000;fill-opacity:1;fill-rule:nonzero;stroke:none;stroke-width:0.35277775" />
    <path
       inkscape:connector-curvature="0"
       id="path6140"
       d="m 146.61949,38.958745 -8.53695,10.671526"
       style="fill:none;stroke:#000000;stroke-width:0.07029097;stroke-linecap:butt;stroke-linejoin:miter;stroke-miterlimit:10;stroke-opacity:1" />
    <path
       inkscape:connector-curvature="0"
       id="path6142"
       d="m 137.68704,50.123595 c 0.0896,-0.168098 0.19844,-0.471276 0.23289,-0.713809 l 0.41204,0.329353 c -0.22738,0.08819 -0.50023,0.260456 -0.64493,0.384456"
       style="fill:#000000;fill-opacity:1;fill-rule:nonzero;stroke:none;stroke-width:0.35277775" />
    <path
       inkscape:connector-curvature="0"
       id="path6144"
       d="m 146.10961,41.266934 -7.41384,-5.560377"
       style="fill:none;stroke:#000000;stroke-width:0.07029097;stroke-linecap:butt;stroke-linejoin:miter;stroke-miterlimit:10;stroke-opacity:1" />
    <path
       inkscape:connector-curvature="0"
       id="path6146"
       d="m 138.18865,35.326227 c 0.17088,0.08407 0.47818,0.183268 0.72071,0.210855 l -0.31557,0.421676 c -0.0951,-0.224614 -0.2756,-0.491949 -0.40514,-0.632531"
       style="fill:#000000;fill-opacity:1;fill-rule:nonzero;stroke:none;stroke-width:0.35277775" />
    <path
       inkscape:connector-curvature="0"
       id="path6148"
       d="m 145.62868,42.292212 -6.34449,-1.586124"
       style="fill:none;stroke:#000000;stroke-width:0.07029097;stroke-linecap:butt;stroke-linejoin:miter;stroke-miterlimit:10;stroke-opacity:1" />
    <path
       inkscape:connector-curvature="0"
       id="path6150"
       d="m 138.66959,40.551748 c 0.19017,0.01093 0.51262,-0.01658 0.74689,-0.08544 l -0.12816,0.512657 c -0.17501,-0.170886 -0.4451,-0.347275 -0.61873,-0.427214"
       style="fill:#000000;fill-opacity:1;fill-rule:nonzero;stroke:none;stroke-width:0.35277775" />
    <path
       inkscape:connector-curvature="0"
       id="path6152"
       d="m 145.62868,43.677147 -6.34449,1.586124"
       style="fill:none;stroke:#000000;stroke-width:0.07029097;stroke-linecap:butt;stroke-linejoin:miter;stroke-miterlimit:10;stroke-opacity:1" />
    <path
       inkscape:connector-curvature="0"
       id="path6154"
       d="m 138.66959,45.416236 c 0.17363,-0.07856 0.44372,-0.256329 0.61873,-0.427214 l 0.12816,0.512656 c -0.23427,-0.06752 -0.55672,-0.09648 -0.74689,-0.08544"
       style="fill:#000000;fill-opacity:1;fill-rule:nonzero;stroke:none;stroke-width:0.35277775" />
    <path
       inkscape:connector-curvature="0"
       id="path6156"
       d="m 146.10961,44.701014 -7.41384,5.561752"
       style="fill:none;stroke:#000000;stroke-width:0.07029097;stroke-linecap:butt;stroke-linejoin:miter;stroke-miterlimit:10;stroke-opacity:1" />
    <path
       inkscape:connector-curvature="0"
       id="path6158"
       d="m 138.18865,50.641755 c 0.12954,-0.140581 0.31006,-0.407916 0.40514,-0.632529 l 0.31557,0.421674 c -0.24253,0.02752 -0.54983,0.126789 -0.72071,0.210855"
       style="fill:#000000;fill-opacity:1;fill-rule:nonzero;stroke:none;stroke-width:0.35277775" />
    <path
       inkscape:connector-curvature="0"
       id="path6160"
       d="m 146.61949,47.009237 -8.53695,-10.67015"
       style="fill:none;stroke:#000000;stroke-width:0.07029097;stroke-linecap:butt;stroke-linejoin:miter;stroke-miterlimit:10;stroke-opacity:1" />
    <path
       inkscape:connector-curvature="0"
       id="path6162"
       d="m 137.68704,35.844387 c 0.1447,0.124001 0.41755,0.296263 0.64493,0.384457 l -0.41204,0.329354 c -0.0345,-0.241159 -0.14331,-0.545712 -0.23289,-0.713811"
       style="fill:#000000;fill-opacity:1;fill-rule:nonzero;stroke:none;stroke-width:0.35277775" />
    <path
       inkscape:connector-curvature="0"
       id="path6164"
       d="M 146.10961,47.516356 138.69577,41.95598"
       style="fill:none;stroke:#000000;stroke-width:0.07029097;stroke-linecap:butt;stroke-linejoin:miter;stroke-miterlimit:10;stroke-opacity:1" />
    <path
       inkscape:connector-curvature="0"
       id="path6166"
       d="m 138.18865,41.577026 c 0.17088,0.08403 0.47818,0.181892 0.72071,0.21082 l -0.31557,0.421675 c -0.0951,-0.224614 -0.2756,-0.491949 -0.40514,-0.632495"
       style="fill:#000000;fill-opacity:1;fill-rule:nonzero;stroke:none;stroke-width:0.35277775" />
    <path
       inkscape:connector-curvature="0"
       id="path6168"
       d="m 145.62868,48.541598 -6.34449,-1.586124"
       style="fill:none;stroke:#000000;stroke-width:0.07029097;stroke-linecap:butt;stroke-linejoin:miter;stroke-miterlimit:10;stroke-opacity:1" />
    <path
       inkscape:connector-curvature="0"
       id="path6170"
       d="m 138.66959,46.801169 c 0.19017,0.01236 0.51262,-0.01659 0.74689,-0.08544 l -0.12816,0.512622 c -0.17501,-0.170886 -0.4451,-0.347276 -0.61873,-0.42718"
       style="fill:#000000;fill-opacity:1;fill-rule:nonzero;stroke:none;stroke-width:0.35277775" />
    <path
       inkscape:connector-curvature="0"
       id="path6172"
       d="m 145.62868,49.926533 -6.34449,1.586124"
       style="fill:none;stroke:#000000;stroke-width:0.07029097;stroke-linecap:butt;stroke-linejoin:miter;stroke-miterlimit:10;stroke-opacity:1" />
    <path
       inkscape:connector-curvature="0"
       id="path6174"
       d="m 138.66959,51.666999 c 0.17363,-0.0799 0.44372,-0.256294 0.61873,-0.42718 l 0.12816,0.512622 c -0.23427,-0.0689 -0.55672,-0.09645 -0.74689,-0.08544"
       style="fill:#000000;fill-opacity:1;fill-rule:nonzero;stroke:none;stroke-width:0.35277775" />
    <text
       id="text22410"
       y="66.164413"
       x="149.7618"
       style="font-style:normal;font-variant:normal;font-weight:300;font-stretch:normal;font-size:8.81944466px;line-height:75%;font-family:'Fira Sans';-inkscape-font-specification:'Fira Sans, Light';font-variant-ligatures:normal;font-variant-caps:normal;font-variant-numeric:normal;font-feature-settings:normal;text-align:center;letter-spacing:0px;word-spacing:0px;writing-mode:lr-tb;text-anchor:middle;fill:#000000;fill-opacity:1;stroke:none;stroke-width:0.26458332px;stroke-linecap:butt;stroke-linejoin:miter;stroke-opacity:1"
       xml:space="preserve"><tspan
         style="font-style:normal;font-variant:normal;font-weight:300;font-stretch:normal;font-size:8.81944466px;font-family:'Fira Sans';-inkscape-font-specification:'Fira Sans, Light';font-variant-ligatures:normal;font-variant-caps:normal;font-variant-numeric:normal;font-feature-settings:normal;text-align:center;writing-mode:lr-tb;text-anchor:middle;stroke-width:0.26458332px"
         y="66.164413"
         x="149.7618"
         sodipodi:role="line"
         id="tspan22412">Recognition Model</tspan></text>
  </g>
</svg>
