<?xml version="1.0" encoding="UTF-8" standalone="no"?>
<!-- Created with Inkscape (http://www.inkscape.org/) -->

<svg
   xmlns:dc="http://purl.org/dc/elements/1.1/"
   xmlns:cc="http://creativecommons.org/ns#"
   xmlns:rdf="http://www.w3.org/1999/02/22-rdf-syntax-ns#"
   xmlns:svg="http://www.w3.org/2000/svg"
   xmlns="http://www.w3.org/2000/svg"
   xmlns:sodipodi="http://sodipodi.sourceforge.net/DTD/sodipodi-0.dtd"
   xmlns:inkscape="http://www.inkscape.org/namespaces/inkscape"
   width="200mm"
   height="150mm"
   viewBox="0 0 200 150"
   version="1.1"
   id="svg22199"
   inkscape:version="0.92.2 2405546, 2018-03-11"
   sodipodi:docname="Sleep-R-2.svg">
  <sodipodi:namedview
     id="base"
     pagecolor="#ffffff"
     bordercolor="#666666"
     borderopacity="1.0"
     inkscape:pageopacity="0.0"
     inkscape:pageshadow="2"
     inkscape:zoom="0.9899495"
     inkscape:cx="376.02612"
     inkscape:cy="248.93679"
     inkscape:document-units="mm"
     inkscape:current-layer="layer1"
     showgrid="false"
     fit-margin-top="0"
     fit-margin-left="0"
     fit-margin-right="0"
     fit-margin-bottom="0" />
  <defs
     id="defs22193" />
  <metadata
     id="metadata22196">
    <rdf:RDF>
      <cc:Work
         rdf:about="">
        <dc:format>image/svg+xml</dc:format>
        <dc:type
           rdf:resource="http://purl.org/dc/dcmitype/StillImage" />
        <dc:title></dc:title>
      </cc:Work>
    </rdf:RDF>
  </metadata>
  <g
     transform="translate(-10.292811,65.596402)"
     id="layer1"
     inkscape:groupmode="layer"
     inkscape:label="Layer 1">
    <path
       sodipodi:nodetypes="csc"
       style="fill:none;stroke:#ff0000;stroke-width:1.50001097;stroke-linecap:butt;stroke-linejoin:miter;stroke-miterlimit:10;stroke-opacity:1"
       d="m 188.40299,21.56927 c 0,3.541562 -1.03097,4.696706 -2.85884,7.437396 -14.2737,21.401884 -77.14179,18.483279 -77.14179,-7.226541"
       id="path6044"
       inkscape:connector-curvature="0" />
    <path
       style="fill:#ff0000;fill-opacity:1;fill-rule:nonzero;stroke:#ff0000;stroke-width:1.50001097;stroke-linecap:butt;stroke-linejoin:miter;stroke-miterlimit:10;stroke-opacity:1"
       d="m 106.24986,26.574305 2.1525,-5.069805 2.15112,5.069805 z m 0,0"
       id="path6046"
       inkscape:connector-curvature="0" />
    <path
       style="fill:#ffffff;fill-opacity:1;fill-rule:nonzero;stroke:none;stroke-width:0.35277775"
       d="M 164.02411,30.483823 V 55.484159 H 132.77434 V 30.483823 Z m 0,0"
       id="path6056"
       inkscape:connector-curvature="0" />
    <path
       style="fill:#7f7fff;fill-opacity:1;fill-rule:nonzero;stroke:none;stroke-width:0.35277775"
       d="m 158.08614,33.609187 c 0,-1.554409 1.25953,-2.813932 2.81258,-2.813932 1.55442,0 2.81395,1.259523 2.81395,2.813932 0,1.554445 -1.25953,2.813967 -2.81395,2.813967 -1.55305,0 -2.81258,-1.259522 -2.81258,-2.813967 z m 0,0"
       id="path6058"
       inkscape:connector-curvature="0" />
    <path
       style="fill:#7f7fff;fill-opacity:1;fill-rule:nonzero;stroke:none;stroke-width:0.35277775"
       d="m 158.08614,39.85861 c 0,-1.553069 1.25953,-2.812591 2.81258,-2.812591 1.55442,0 2.81395,1.259522 2.81395,2.812591 0,1.55441 -1.25953,2.813932 -2.81395,2.813932 -1.55305,0 -2.81258,-1.259522 -2.81258,-2.813932 z m 0,0"
       id="path6060"
       inkscape:connector-curvature="0" />
    <path
       style="fill:#7f7fff;fill-opacity:1;fill-rule:nonzero;stroke:none;stroke-width:0.35277775"
       d="m 158.08614,46.109374 c 0,-1.55441 1.25953,-2.813932 2.81258,-2.813932 1.55442,0 2.81395,1.259522 2.81395,2.813932 0,1.554443 -1.25953,2.813965 -2.81395,2.813965 -1.55305,0 -2.81258,-1.259522 -2.81258,-2.813965 z m 0,0"
       id="path6062"
       inkscape:connector-curvature="0" />
    <path
       style="fill:#7f7fff;fill-opacity:1;fill-rule:nonzero;stroke:none;stroke-width:0.35277775"
       d="m 158.08614,52.358795 c 0,-1.553067 1.25953,-2.81259 2.81258,-2.81259 1.55442,0 2.81395,1.259523 2.81395,2.81259 0,1.554411 -1.25953,2.813934 -2.81395,2.813934 -1.55305,0 -2.81258,-1.259523 -2.81258,-2.813934 z m 0,0"
       id="path6064"
       inkscape:connector-curvature="0" />
    <path
       style="fill:#7f7fff;fill-opacity:1;fill-rule:nonzero;stroke:none;stroke-width:0.35277775"
       d="m 145.58596,36.734587 c 0,-1.55441 1.25953,-2.813968 2.81258,-2.813968 1.55442,0 2.81395,1.259558 2.81395,2.813968 0,1.553033 -1.25953,2.812591 -2.81395,2.812591 -1.55305,0 -2.81258,-1.259558 -2.81258,-2.812591 z m 0,0"
       id="path6066"
       inkscape:connector-curvature="0" />
    <path
       style="fill:#7f7fff;fill-opacity:1;fill-rule:nonzero;stroke:none;stroke-width:0.35277775"
       d="m 145.58596,42.983974 c 0,-1.554409 1.25953,-2.813932 2.81258,-2.813932 1.55442,0 2.81395,1.259523 2.81395,2.813932 0,1.554445 -1.25953,2.813967 -2.81395,2.813967 -1.55305,0 -2.81258,-1.259522 -2.81258,-2.813967 z m 0,0"
       id="path6068"
       inkscape:connector-curvature="0" />
    <path
       style="fill:#7f7fff;fill-opacity:1;fill-rule:nonzero;stroke:none;stroke-width:0.35277775"
       d="m 145.58596,49.234772 c 0,-1.554445 1.25953,-2.813968 2.81258,-2.813968 1.55442,0 2.81395,1.259523 2.81395,2.813968 0,1.553033 -1.25953,2.812592 -2.81395,2.812592 -1.55305,0 -2.81258,-1.259559 -2.81258,-2.812592 z m 0,0"
       id="path6070"
       inkscape:connector-curvature="0" />
    <path
       style="fill:#7f7fff;fill-opacity:1;fill-rule:nonzero;stroke:none;stroke-width:0.35277775"
       d="m 133.08578,33.609187 c 0,-1.554409 1.25952,-2.813932 2.81257,-2.813932 1.55443,0 2.81395,1.259523 2.81395,2.813932 0,1.554445 -1.25952,2.813967 -2.81395,2.813967 -1.55305,0 -2.81257,-1.259522 -2.81257,-2.813967 z m 0,0"
       id="path6072"
       inkscape:connector-curvature="0" />
    <path
       style="fill:#7f7fff;fill-opacity:1;fill-rule:nonzero;stroke:none;stroke-width:0.35277775"
       d="m 133.08578,39.85861 c 0,-1.553069 1.25952,-2.812591 2.81257,-2.812591 1.55443,0 2.81395,1.259522 2.81395,2.812591 0,1.55441 -1.25952,2.813932 -2.81395,2.813932 -1.55305,0 -2.81257,-1.259522 -2.81257,-2.813932 z m 0,0"
       id="path6074"
       inkscape:connector-curvature="0" />
    <path
       style="fill:#7f7fff;fill-opacity:1;fill-rule:nonzero;stroke:none;stroke-width:0.35277775"
       d="m 133.08578,46.109374 c 0,-1.55441 1.25952,-2.813932 2.81257,-2.813932 1.55443,0 2.81395,1.259522 2.81395,2.813932 0,1.554443 -1.25952,2.813965 -2.81395,2.813965 -1.55305,0 -2.81257,-1.259522 -2.81257,-2.813965 z m 0,0"
       id="path6076"
       inkscape:connector-curvature="0" />
    <path
       style="fill:#7f7fff;fill-opacity:1;fill-rule:nonzero;stroke:none;stroke-width:0.35277775"
       d="m 133.08578,52.358795 c 0,-1.553067 1.25952,-2.81259 2.81257,-2.81259 1.55443,0 2.81395,1.259523 2.81395,2.81259 0,1.554411 -1.25952,2.813934 -2.81395,2.813934 -1.55305,0 -2.81257,-1.259523 -2.81257,-2.813934 z m 0,0"
       id="path6078"
       inkscape:connector-curvature="0" />
    <path
       style="fill:none;stroke:#000000;stroke-width:0.07029097;stroke-linecap:butt;stroke-linejoin:miter;stroke-miterlimit:10;stroke-opacity:1"
       d="m 158.12886,34.30236 -6.34448,1.586124"
       id="path6080"
       inkscape:connector-curvature="0" />
    <path
       style="fill:#000000;fill-opacity:1;fill-rule:nonzero;stroke:none;stroke-width:0.35277775"
       d="m 151.16977,36.041449 c 0.17363,-0.07994 0.44373,-0.256329 0.61874,-0.427214 l 0.12816,0.512621 c -0.23427,-0.06752 -0.55673,-0.09645 -0.7469,-0.08541"
       id="path6082"
       inkscape:connector-curvature="0" />
    <path
       style="fill:none;stroke:#000000;stroke-width:0.07029097;stroke-linecap:butt;stroke-linejoin:miter;stroke-miterlimit:10;stroke-opacity:1"
       d="m 158.60979,35.326227 -7.41522,5.560378"
       id="path6084"
       inkscape:connector-curvature="0" />
    <path
       style="fill:#000000;fill-opacity:1;fill-rule:nonzero;stroke:none;stroke-width:0.35277775"
       d="m 150.68883,41.26697 c 0.12954,-0.140583 0.31006,-0.407918 0.40515,-0.632531 l 0.31557,0.421675 c -0.24254,0.02752 -0.54984,0.126788 -0.72072,0.210856"
       id="path6086"
       inkscape:connector-curvature="0" />
    <path
       style="fill:none;stroke:#000000;stroke-width:0.07029097;stroke-linecap:butt;stroke-linejoin:miter;stroke-miterlimit:10;stroke-opacity:1"
       d="m 159.11967,35.833345 -8.53694,10.671528"
       id="path6088"
       inkscape:connector-curvature="0" />
    <path
       style="fill:#000000;fill-opacity:1;fill-rule:nonzero;stroke:none;stroke-width:0.35277775"
       d="m 150.18723,46.998231 c 0.0896,-0.168132 0.19843,-0.471311 0.23289,-0.71247 l 0.41203,0.329353 c -0.22738,0.08682 -0.50023,0.25908 -0.64492,0.383117"
       id="path6090"
       inkscape:connector-curvature="0" />
    <path
       style="fill:none;stroke:#000000;stroke-width:0.07029097;stroke-linecap:butt;stroke-linejoin:miter;stroke-miterlimit:10;stroke-opacity:1"
       d="m 158.12886,39.166813 -6.34448,-1.586124"
       id="path6092"
       inkscape:connector-curvature="0" />
    <path
       style="fill:#000000;fill-opacity:1;fill-rule:nonzero;stroke:none;stroke-width:0.35277775"
       d="m 151.16977,37.426348 c 0.19017,0.01094 0.51263,-0.01658 0.7469,-0.08541 l -0.12816,0.512621 c -0.17501,-0.170885 -0.44511,-0.347274 -0.61874,-0.427214"
       id="path6094"
       inkscape:connector-curvature="0" />
    <path
       style="fill:none;stroke:#000000;stroke-width:0.07029097;stroke-linecap:butt;stroke-linejoin:miter;stroke-miterlimit:10;stroke-opacity:1"
       d="m 158.12886,40.551748 -6.34448,1.586124"
       id="path6096"
       inkscape:connector-curvature="0" />
    <path
       style="fill:#000000;fill-opacity:1;fill-rule:nonzero;stroke:none;stroke-width:0.35277775"
       d="m 151.16977,42.292212 c 0.17363,-0.07994 0.44373,-0.256328 0.61874,-0.427178 l 0.12816,0.512621 c -0.23427,-0.0689 -0.55673,-0.09783 -0.7469,-0.08544"
       id="path6098"
       inkscape:connector-curvature="0" />
    <path
       style="fill:none;stroke:#000000;stroke-width:0.07029097;stroke-linecap:butt;stroke-linejoin:miter;stroke-miterlimit:10;stroke-opacity:1"
       d="m 158.60979,41.577026 -7.41522,5.560376"
       id="path6100"
       inkscape:connector-curvature="0" />
    <path
       style="fill:#000000;fill-opacity:1;fill-rule:nonzero;stroke:none;stroke-width:0.35277775"
       d="m 150.68883,47.516356 c 0.12954,-0.140546 0.31006,-0.407881 0.40515,-0.632531 l 0.31557,0.421677 c -0.24254,0.02893 -0.54984,0.126788 -0.72072,0.210854"
       id="path6102"
       inkscape:connector-curvature="0" />
    <path
       style="fill:none;stroke:#000000;stroke-width:0.07029097;stroke-linecap:butt;stroke-linejoin:miter;stroke-miterlimit:10;stroke-opacity:1"
       d="M 158.60979,44.392333 151.19457,38.83058"
       id="path6104"
       inkscape:connector-curvature="0" />
    <path
       style="fill:#000000;fill-opacity:1;fill-rule:nonzero;stroke:none;stroke-width:0.35277775"
       d="m 150.68883,38.451626 c 0.17088,0.08407 0.47818,0.183269 0.72072,0.21082 l -0.31557,0.421711 c -0.0951,-0.224649 -0.27561,-0.491984 -0.40515,-0.632531"
       id="path6106"
       inkscape:connector-curvature="0" />
    <path
       style="fill:none;stroke:#000000;stroke-width:0.07029097;stroke-linecap:butt;stroke-linejoin:miter;stroke-miterlimit:10;stroke-opacity:1"
       d="m 158.12886,45.416236 -6.34448,-1.586124"
       id="path6108"
       inkscape:connector-curvature="0" />
    <path
       style="fill:#000000;fill-opacity:1;fill-rule:nonzero;stroke:none;stroke-width:0.35277775"
       d="m 151.16977,43.677147 c 0.19017,0.01093 0.51263,-0.01799 0.7469,-0.08544 l -0.12816,0.512621 c -0.17501,-0.17085 -0.44511,-0.347239 -0.61874,-0.427179"
       id="path6110"
       inkscape:connector-curvature="0" />
    <path
       style="fill:none;stroke:#000000;stroke-width:0.07029097;stroke-linecap:butt;stroke-linejoin:miter;stroke-miterlimit:10;stroke-opacity:1"
       d="m 158.12886,46.801135 -6.34448,1.5875"
       id="path6112"
       inkscape:connector-curvature="0" />
    <path
       style="fill:#000000;fill-opacity:1;fill-rule:nonzero;stroke:none;stroke-width:0.35277775"
       d="m 151.16977,48.541635 c 0.17363,-0.07994 0.44373,-0.256328 0.61874,-0.427215 l 0.12816,0.512623 c -0.23427,-0.06752 -0.55673,-0.09645 -0.7469,-0.08541"
       id="path6114"
       inkscape:connector-curvature="0" />
    <path
       style="fill:none;stroke:#000000;stroke-width:0.07029097;stroke-linecap:butt;stroke-linejoin:miter;stroke-miterlimit:10;stroke-opacity:1"
       d="M 159.11967,50.134639 150.58273,39.463111"
       id="path6116"
       inkscape:connector-curvature="0" />
    <path
       style="fill:#000000;fill-opacity:1;fill-rule:nonzero;stroke:none;stroke-width:0.35277775"
       d="m 150.18723,38.969751 c 0.14469,0.124037 0.41754,0.296298 0.64492,0.384493 l -0.41203,0.329353 c -0.0345,-0.242535 -0.14332,-0.545712 -0.23289,-0.713846"
       id="path6118"
       inkscape:connector-curvature="0" />
    <path
       style="fill:none;stroke:#000000;stroke-width:0.07029097;stroke-linecap:butt;stroke-linejoin:miter;stroke-miterlimit:10;stroke-opacity:1"
       d="m 158.60979,50.641755 -7.41522,-5.560411"
       id="path6120"
       inkscape:connector-curvature="0" />
    <path
       style="fill:#000000;fill-opacity:1;fill-rule:nonzero;stroke:none;stroke-width:0.35277775"
       d="m 150.68883,44.701014 c 0.17088,0.08544 0.47818,0.183303 0.72072,0.212231 l -0.31557,0.421676 c -0.0951,-0.22599 -0.27561,-0.491949 -0.40515,-0.633907"
       id="path6122"
       inkscape:connector-curvature="0" />
    <path
       style="fill:none;stroke:#000000;stroke-width:0.07029097;stroke-linecap:butt;stroke-linejoin:miter;stroke-miterlimit:10;stroke-opacity:1"
       d="m 158.12886,51.666999 -6.34448,-1.586124"
       id="path6124"
       inkscape:connector-curvature="0" />
    <path
       style="fill:#000000;fill-opacity:1;fill-rule:nonzero;stroke:none;stroke-width:0.35277775"
       d="m 151.16977,49.926533 c 0.19017,0.01093 0.51263,-0.01659 0.7469,-0.08544 l -0.12816,0.512657 c -0.17501,-0.170887 -0.44511,-0.347274 -0.61874,-0.427215"
       id="path6126"
       inkscape:connector-curvature="0" />
    <path
       style="fill:none;stroke:#000000;stroke-width:0.07029097;stroke-linecap:butt;stroke-linejoin:miter;stroke-miterlimit:10;stroke-opacity:1"
       d="m 145.62868,36.041413 -6.34449,-1.586088"
       id="path6128"
       inkscape:connector-curvature="0" />
    <path
       style="fill:#000000;fill-opacity:1;fill-rule:nonzero;stroke:none;stroke-width:0.35277775"
       d="m 138.66959,34.300984 c 0.19017,0.01235 0.51262,-0.01658 0.74689,-0.08544 l -0.12816,0.512621 c -0.17501,-0.170886 -0.4451,-0.347275 -0.61873,-0.427179"
       id="path6130"
       inkscape:connector-curvature="0" />
    <path
       style="fill:none;stroke:#000000;stroke-width:0.07029097;stroke-linecap:butt;stroke-linejoin:miter;stroke-miterlimit:10;stroke-opacity:1"
       d="m 145.62868,37.426348 -6.34449,1.586125"
       id="path6132"
       inkscape:connector-curvature="0" />
    <path
       style="fill:#000000;fill-opacity:1;fill-rule:nonzero;stroke:none;stroke-width:0.35277775"
       d="m 138.66959,39.166813 c 0.17363,-0.0799 0.44372,-0.256293 0.61873,-0.427179 l 0.12816,0.512622 c -0.23427,-0.0689 -0.55672,-0.09645 -0.74689,-0.08544"
       id="path6134"
       inkscape:connector-curvature="0" />
    <path
       style="fill:none;stroke:#000000;stroke-width:0.07029097;stroke-linecap:butt;stroke-linejoin:miter;stroke-miterlimit:10;stroke-opacity:1"
       d="m 146.10961,38.451626 -7.41384,5.560378"
       id="path6136"
       inkscape:connector-curvature="0" />
    <path
       style="fill:#000000;fill-opacity:1;fill-rule:nonzero;stroke:none;stroke-width:0.35277775"
       d="m 138.18865,44.392333 c 0.12954,-0.140546 0.31006,-0.407881 0.40514,-0.633871 l 0.31557,0.423052 c -0.24253,0.02752 -0.54983,0.125377 -0.72071,0.210819"
       id="path6138"
       inkscape:connector-curvature="0" />
    <path
       style="fill:none;stroke:#000000;stroke-width:0.07029097;stroke-linecap:butt;stroke-linejoin:miter;stroke-miterlimit:10;stroke-opacity:1"
       d="m 146.61949,38.958745 -8.53695,10.671526"
       id="path6140"
       inkscape:connector-curvature="0" />
    <path
       style="fill:#000000;fill-opacity:1;fill-rule:nonzero;stroke:none;stroke-width:0.35277775"
       d="m 137.68704,50.123595 c 0.0896,-0.168098 0.19844,-0.471276 0.23289,-0.713809 l 0.41204,0.329353 c -0.22738,0.08819 -0.50023,0.260456 -0.64493,0.384456"
       id="path6142"
       inkscape:connector-curvature="0" />
    <path
       style="fill:none;stroke:#000000;stroke-width:0.07029097;stroke-linecap:butt;stroke-linejoin:miter;stroke-miterlimit:10;stroke-opacity:1"
       d="m 146.10961,41.266934 -7.41384,-5.560377"
       id="path6144"
       inkscape:connector-curvature="0" />
    <path
       style="fill:#000000;fill-opacity:1;fill-rule:nonzero;stroke:none;stroke-width:0.35277775"
       d="m 138.18865,35.326227 c 0.17088,0.08407 0.47818,0.183268 0.72071,0.210855 l -0.31557,0.421676 c -0.0951,-0.224614 -0.2756,-0.491949 -0.40514,-0.632531"
       id="path6146"
       inkscape:connector-curvature="0" />
    <path
       style="fill:none;stroke:#000000;stroke-width:0.07029097;stroke-linecap:butt;stroke-linejoin:miter;stroke-miterlimit:10;stroke-opacity:1"
       d="m 145.62868,42.292212 -6.34449,-1.586124"
       id="path6148"
       inkscape:connector-curvature="0" />
    <path
       style="fill:#000000;fill-opacity:1;fill-rule:nonzero;stroke:none;stroke-width:0.35277775"
       d="m 138.66959,40.551748 c 0.19017,0.01093 0.51262,-0.01658 0.74689,-0.08544 l -0.12816,0.512657 c -0.17501,-0.170886 -0.4451,-0.347275 -0.61873,-0.427214"
       id="path6150"
       inkscape:connector-curvature="0" />
    <path
       style="fill:none;stroke:#000000;stroke-width:0.07029097;stroke-linecap:butt;stroke-linejoin:miter;stroke-miterlimit:10;stroke-opacity:1"
       d="m 145.62868,43.677147 -6.34449,1.586124"
       id="path6152"
       inkscape:connector-curvature="0" />
    <path
       style="fill:#000000;fill-opacity:1;fill-rule:nonzero;stroke:none;stroke-width:0.35277775"
       d="m 138.66959,45.416236 c 0.17363,-0.07856 0.44372,-0.256329 0.61873,-0.427214 l 0.12816,0.512656 c -0.23427,-0.06752 -0.55672,-0.09648 -0.74689,-0.08544"
       id="path6154"
       inkscape:connector-curvature="0" />
    <path
       style="fill:none;stroke:#000000;stroke-width:0.07029097;stroke-linecap:butt;stroke-linejoin:miter;stroke-miterlimit:10;stroke-opacity:1"
       d="m 146.10961,44.701014 -7.41384,5.561752"
       id="path6156"
       inkscape:connector-curvature="0" />
    <path
       style="fill:#000000;fill-opacity:1;fill-rule:nonzero;stroke:none;stroke-width:0.35277775"
       d="m 138.18865,50.641755 c 0.12954,-0.140581 0.31006,-0.407916 0.40514,-0.632529 l 0.31557,0.421674 c -0.24253,0.02752 -0.54983,0.126789 -0.72071,0.210855"
       id="path6158"
       inkscape:connector-curvature="0" />
    <path
       style="fill:none;stroke:#000000;stroke-width:0.07029097;stroke-linecap:butt;stroke-linejoin:miter;stroke-miterlimit:10;stroke-opacity:1"
       d="m 146.61949,47.009237 -8.53695,-10.67015"
       id="path6160"
       inkscape:connector-curvature="0" />
    <path
       style="fill:#000000;fill-opacity:1;fill-rule:nonzero;stroke:none;stroke-width:0.35277775"
       d="m 137.68704,35.844387 c 0.1447,0.124001 0.41755,0.296263 0.64493,0.384457 l -0.41204,0.329354 c -0.0345,-0.241159 -0.14331,-0.545712 -0.23289,-0.713811"
       id="path6162"
       inkscape:connector-curvature="0" />
    <path
       style="fill:none;stroke:#000000;stroke-width:0.07029097;stroke-linecap:butt;stroke-linejoin:miter;stroke-miterlimit:10;stroke-opacity:1"
       d="M 146.10961,47.516356 138.69577,41.95598"
       id="path6164"
       inkscape:connector-curvature="0" />
    <path
       style="fill:#000000;fill-opacity:1;fill-rule:nonzero;stroke:none;stroke-width:0.35277775"
       d="m 138.18865,41.577026 c 0.17088,0.08403 0.47818,0.181892 0.72071,0.21082 l -0.31557,0.421675 c -0.0951,-0.224614 -0.2756,-0.491949 -0.40514,-0.632495"
       id="path6166"
       inkscape:connector-curvature="0" />
    <path
       style="fill:none;stroke:#000000;stroke-width:0.07029097;stroke-linecap:butt;stroke-linejoin:miter;stroke-miterlimit:10;stroke-opacity:1"
       d="m 145.62868,48.541598 -6.34449,-1.586124"
       id="path6168"
       inkscape:connector-curvature="0" />
    <path
       style="fill:#000000;fill-opacity:1;fill-rule:nonzero;stroke:none;stroke-width:0.35277775"
       d="m 138.66959,46.801169 c 0.19017,0.01236 0.51262,-0.01659 0.74689,-0.08544 l -0.12816,0.512622 c -0.17501,-0.170886 -0.4451,-0.347276 -0.61873,-0.42718"
       id="path6170"
       inkscape:connector-curvature="0" />
    <path
       style="fill:none;stroke:#000000;stroke-width:0.07029097;stroke-linecap:butt;stroke-linejoin:miter;stroke-miterlimit:10;stroke-opacity:1"
       d="m 145.62868,49.926533 -6.34449,1.586124"
       id="path6172"
       inkscape:connector-curvature="0" />
    <path
       style="fill:#000000;fill-opacity:1;fill-rule:nonzero;stroke:none;stroke-width:0.35277775"
       d="m 138.66959,51.666999 c 0.17363,-0.0799 0.44372,-0.256294 0.61873,-0.42718 l 0.12816,0.512622 c -0.23427,-0.0689 -0.55672,-0.09645 -0.74689,-0.08544"
       id="path6174"
       inkscape:connector-curvature="0" />
    <text
       xml:space="preserve"
       style="font-style:normal;font-variant:normal;font-weight:300;font-stretch:normal;font-size:8.81944466px;line-height:75%;font-family:'Fira Sans';-inkscape-font-specification:'Fira Sans, Light';font-variant-ligatures:normal;font-variant-caps:normal;font-variant-numeric:normal;font-feature-settings:normal;text-align:center;letter-spacing:0px;word-spacing:0px;writing-mode:lr-tb;text-anchor:middle;fill:#000000;fill-opacity:1;stroke:none;stroke-width:0.26458332px;stroke-linecap:butt;stroke-linejoin:miter;stroke-opacity:1"
       x="149.7618"
       y="66.164413"
       id="text22410"><tspan
         id="tspan22412"
         sodipodi:role="line"
         x="149.7618"
         y="66.164413"
         style="font-style:normal;font-variant:normal;font-weight:300;font-stretch:normal;font-size:8.81944466px;line-height:125%;font-family:'Fira Sans';-inkscape-font-specification:'Fira Sans, Light';font-variant-ligatures:normal;font-variant-caps:normal;font-variant-numeric:normal;font-feature-settings:normal;text-align:center;writing-mode:lr-tb;text-anchor:middle;stroke-width:0.26458332px">Training</tspan><tspan
         id="tspan24716"
         sodipodi:role="line"
         x="149.7618"
         y="77.188721"
         style="font-style:normal;font-variant:normal;font-weight:300;font-stretch:normal;font-size:8.81944466px;line-height:125%;font-family:'Fira Sans';-inkscape-font-specification:'Fira Sans, Light';font-variant-ligatures:normal;font-variant-caps:normal;font-variant-numeric:normal;font-feature-settings:normal;text-align:center;writing-mode:lr-tb;text-anchor:middle;stroke-width:0.26458332px">Recognition Model</tspan></text>
    <path
       inkscape:connector-curvature="0"
       id="path24392"
       d="m 186.15408,26.574305 2.1525,-5.069805 2.15112,5.069805 z m 0,0"
       style="fill:#ff0000;fill-opacity:1;fill-rule:nonzero;stroke:#ff0000;stroke-width:1.50001097;stroke-linecap:butt;stroke-linejoin:miter;stroke-miterlimit:10;stroke-opacity:1" />
    <path
       inkscape:connector-curvature="0"
       id="path25155"
       d="m 37.346346,7.599757 c 0,-5.823585 -4.721159,-10.544739 -10.544746,-10.544739 -5.822213,0 -10.543371,4.721154 -10.543371,10.544739 0,5.822209 4.721158,10.543364 10.543371,10.543364 5.823587,0 10.544746,-4.721155 10.544746,-10.543364 z m 0,0"
       style="fill:#dedede;fill-opacity:1;fill-rule:nonzero;stroke:#000000;stroke-width:1.50001097;stroke-linecap:butt;stroke-linejoin:miter;stroke-miterlimit:10;stroke-opacity:1" />
    <path
       inkscape:connector-curvature="0"
       id="path25157"
       d="m 117.34698,7.599757 c 0,-5.823585 -4.71978,-10.544739 -10.54338,-10.544739 -5.82358,0 -10.54474,4.721154 -10.54474,10.544739 0,5.822209 4.72116,10.543364 10.54474,10.543364 5.8236,0 10.54338,-4.721155 10.54338,-10.543364 z m 0,0"
       style="fill:#000000;fill-opacity:0;fill-rule:nonzero;stroke:#000000;stroke-width:1.50001097;stroke-linecap:butt;stroke-linejoin:miter;stroke-miterlimit:10;stroke-opacity:1" />
    <path
       inkscape:connector-curvature="0"
       id="path25159"
       d="m 197.34763,7.599757 c 0,-5.823585 -4.71978,-10.544739 -10.54337,-10.544739 -5.82359,0 -10.54337,4.721154 -10.54337,10.544739 0,5.822209 4.71978,10.543364 10.54337,10.543364 5.82359,0 10.54337,-4.721155 10.54337,-10.543364 z m 0,0"
       style="fill:#000000;fill-opacity:0;fill-rule:nonzero;stroke:#000000;stroke-width:1.50001097;stroke-linecap:butt;stroke-linejoin:miter;stroke-miterlimit:10;stroke-opacity:1" />
    <path
       inkscape:connector-curvature="0"
       id="path25167"
       d="m 119.59732,7.599757 h 52.21802"
       style="fill:none;stroke:#000000;stroke-width:1.50001097;stroke-linecap:butt;stroke-linejoin:miter;stroke-miterlimit:10;stroke-opacity:1" />
    <path
       inkscape:connector-curvature="0"
       id="path25169"
       d="m 167.02114,5.447248 5.0698,2.152509 -5.0698,2.151132 z m 0,0"
       style="fill:#000000;fill-opacity:1;fill-rule:nonzero;stroke:#000000;stroke-width:1.50001097;stroke-linecap:butt;stroke-linejoin:miter;stroke-miterlimit:10;stroke-opacity:1" />
    <text
       xml:space="preserve"
       style="font-style:normal;font-variant:normal;font-weight:300;font-stretch:normal;font-size:8.81944466px;line-height:75%;font-family:'Fira Sans';-inkscape-font-specification:'Fira Sans, Light';font-variant-ligatures:normal;font-variant-caps:normal;font-variant-numeric:normal;font-feature-settings:normal;text-align:center;letter-spacing:0px;word-spacing:0px;writing-mode:lr-tb;text-anchor:middle;fill:#000000;fill-opacity:1;stroke:none;stroke-width:0.26458332px;stroke-linecap:butt;stroke-linejoin:miter;stroke-opacity:1"
       x="26.399073"
       y="10.619728"
       id="text25173"><tspan
         sodipodi:role="line"
         id="tspan25171"
         x="26.399073"
         y="10.619728"
         style="font-style:normal;font-variant:normal;font-weight:300;font-stretch:normal;font-size:8.81944466px;font-family:'Fira Sans';-inkscape-font-specification:'Fira Sans, Light';font-variant-ligatures:normal;font-variant-caps:normal;font-variant-numeric:normal;font-feature-settings:normal;text-align:center;writing-mode:lr-tb;text-anchor:middle;stroke-width:0.26458332px">DSL</tspan></text>
    <text
       id="text25177"
       y="9.7157364"
       x="106.35272"
       style="font-style:normal;font-variant:normal;font-weight:300;font-stretch:normal;font-size:8.81944466px;line-height:75%;font-family:'Fira Sans';-inkscape-font-specification:'Fira Sans, Light';font-variant-ligatures:normal;font-variant-caps:normal;font-variant-numeric:normal;font-feature-settings:normal;text-align:center;letter-spacing:0px;word-spacing:0px;writing-mode:lr-tb;text-anchor:middle;fill:#000000;fill-opacity:1;stroke:none;stroke-width:0.26458332px;stroke-linecap:butt;stroke-linejoin:miter;stroke-opacity:1"
       xml:space="preserve"><tspan
         style="font-style:normal;font-variant:normal;font-weight:300;font-stretch:normal;font-size:8.81944466px;font-family:'Fira Sans';-inkscape-font-specification:'Fira Sans, Light';font-variant-ligatures:normal;font-variant-caps:normal;font-variant-numeric:normal;font-feature-settings:normal;text-align:center;writing-mode:lr-tb;text-anchor:middle;stroke-width:0.26458332px"
         y="9.7157364"
         x="106.35272"
         id="tspan25175"
         sodipodi:role="line">Prog</tspan></text>
    <text
       xml:space="preserve"
       style="font-style:normal;font-variant:normal;font-weight:300;font-stretch:normal;font-size:8.81944466px;line-height:75%;font-family:'Fira Sans';-inkscape-font-specification:'Fira Sans, Light';font-variant-ligatures:normal;font-variant-caps:normal;font-variant-numeric:normal;font-feature-settings:normal;text-align:center;letter-spacing:0px;word-spacing:0px;writing-mode:lr-tb;text-anchor:middle;fill:#000000;fill-opacity:1;stroke:none;stroke-width:0.26458332px;stroke-linecap:butt;stroke-linejoin:miter;stroke-opacity:1"
       x="186.77463"
       y="10.826984"
       id="text25181"><tspan
         sodipodi:role="line"
         id="tspan25179"
         x="186.77463"
         y="10.826984"
         style="font-style:normal;font-variant:normal;font-weight:300;font-stretch:normal;font-size:8.81944466px;font-family:'Fira Sans';-inkscape-font-specification:'Fira Sans, Light';font-variant-ligatures:normal;font-variant-caps:normal;font-variant-numeric:normal;font-feature-settings:normal;text-align:center;writing-mode:lr-tb;text-anchor:middle;stroke-width:0.26458332px">Task</tspan></text>
    <path
       inkscape:connector-curvature="0"
       id="path25165"
       d="m 87.019112,5.447248 5.069801,2.152509 -5.069801,2.151132 z m 0,0"
       style="fill:#000000;fill-opacity:1;fill-rule:nonzero;stroke:#000000;stroke-width:1.50001097;stroke-linecap:butt;stroke-linejoin:miter;stroke-miterlimit:10;stroke-opacity:1" />
    <path
       id="path25300"
       title="sin(x)"
       d="m 41.027515,7.599757 c 0.79728,-0.4454529 1.594561,-0.884044 2.391841,-1.127683 0.797281,-0.2436399 1.594561,-0.2848221 2.391842,-0.1058859 0.79728,0.1789363 1.594561,0.5724787 2.391841,1.0118563 0.797281,0.4393777 1.594561,0.9110541 2.391841,1.2127504 0.797281,0.3016973 1.594561,0.4241198 2.391842,0.3147677 0.79728,-0.1093522 1.594561,-0.4471107 2.391841,-0.8684274 0.797281,-0.4213167 1.594561,-0.9132122 2.391842,-1.2647375 0.797281,-0.3515243 1.594561,-0.5518492 2.391842,-0.5150632 0.79728,0.036785 1.594561,0.3095466 2.391841,0.7013099 0.797281,0.3917644 1.594561,0.890462 2.391842,1.2822253 0.79728,0.3917644 1.594561,0.6645261 2.391841,0.701311 0.797281,0.036785 1.594561,-0.1635389 2.391841,-0.5150642 0.797281,-0.3515244 1.594561,-0.8434209 2.391842,-1.2647376 0.79728,-0.4213166 1.594561,-0.7590752 2.391841,-0.8684273 0.797281,-0.1093521 1.594561,0.01307 2.391842,0.3147677 0.79728,0.3016973 1.59456,0.7733737 2.391841,1.2127503 0.79728,0.4393776 1.594561,0.8329201 2.391841,1.0118563 0.797281,0.1789363 1.594561,0.1377541 2.391842,-0.1058848 0.797281,-0.24364 1.594562,-0.6822312 2.391842,-1.127684"
       style="opacity:1;fill:none;fill-opacity:1;stroke:#000000;stroke-width:1.1;stroke-linecap:butt;stroke-linejoin:round;stroke-miterlimit:10;stroke-dasharray:none;stroke-dashoffset:0;stroke-opacity:1"
       inkscape:connector-curvature="0" />
    <text
       id="text25420"
       y="1.586097"
       x="63.843094"
       style="font-style:normal;font-variant:normal;font-weight:300;font-stretch:normal;font-size:8.81944466px;line-height:75%;font-family:'Fira Sans';-inkscape-font-specification:'Fira Sans, Light';font-variant-ligatures:normal;font-variant-caps:normal;font-variant-numeric:normal;font-feature-settings:normal;text-align:center;letter-spacing:0px;word-spacing:0px;writing-mode:lr-tb;text-anchor:middle;fill:#000000;fill-opacity:1;stroke:none;stroke-width:0.26458332px;stroke-linecap:butt;stroke-linejoin:miter;stroke-opacity:1"
       xml:space="preserve"><tspan
         style="font-style:normal;font-variant:normal;font-weight:300;font-stretch:normal;font-size:8.81944466px;font-family:'Fira Sans';-inkscape-font-specification:'Fira Sans, Light';font-variant-ligatures:normal;font-variant-caps:normal;font-variant-numeric:normal;font-feature-settings:normal;text-align:center;writing-mode:lr-tb;text-anchor:middle;stroke-width:0.26458332px"
         y="1.586097"
         x="63.843094"
         id="tspan25418"
         sodipodi:role="line">Sample</tspan></text>
    <text
       xml:space="preserve"
       style="font-style:normal;font-variant:normal;font-weight:300;font-stretch:normal;font-size:8.81944466px;line-height:75%;font-family:'Fira Sans';-inkscape-font-specification:'Fira Sans, Light';font-variant-ligatures:normal;font-variant-caps:normal;font-variant-numeric:normal;font-feature-settings:normal;text-align:center;letter-spacing:0px;word-spacing:0px;writing-mode:lr-tb;text-anchor:middle;fill:#000000;fill-opacity:1;stroke:none;stroke-width:0.26458332px;stroke-linecap:butt;stroke-linejoin:miter;stroke-opacity:1"
       x="145.66217"
       y="1.586097"
       id="text25450"><tspan
         sodipodi:role="line"
         id="tspan25448"
         x="146.8938"
         y="1.586097"
         style="font-style:normal;font-variant:normal;font-weight:300;font-stretch:normal;font-size:8.81944466px;font-family:'Fira Sans';-inkscape-font-specification:'Fira Sans, Light';font-variant-ligatures:normal;font-variant-caps:normal;font-variant-numeric:normal;font-feature-settings:normal;text-align:center;writing-mode:lr-tb;text-anchor:middle;stroke-width:0.26458332px">Evaluate </tspan></text>
    <path
       inkscape:connector-curvature="0"
       id="path6042"
       d="M 202.92135,-9.9222822 H 90.685657 c -0.77583,0 -1.405597,0.629783 -1.405597,1.4056124 V 27.326108 c 0,0.775827 0.629767,1.405573 1.405597,1.405573 H 202.92135 c 0.77584,0 1.4056,-0.629746 1.4056,-1.405573 V -8.5166698 c 0,-0.7758294 -0.62976,-1.4056124 -1.4056,-1.4056124 z m 0,0"
       style="fill:none;stroke:#000000;stroke-width:1.50000004;stroke-linecap:butt;stroke-linejoin:miter;stroke-miterlimit:10;stroke-opacity:0.50196081;stroke-dasharray:1.50000004,3.00000008;stroke-dashoffset:0" />
  </g>
</svg>
